<?xml version="1.0" encoding="UTF-8"?>
<svg width="24px" height="24px" viewBox="0 0 24 24" version="1.1" xmlns="http://www.w3.org/2000/svg" xmlns:xlink="http://www.w3.org/1999/xlink">
    <title>Icons/files/csv</title>
    <g id="Symbols" stroke="none" stroke-width="1" fill="none" fill-rule="evenodd">
        <g id="Icons/files/csv" fill-rule="nonzero">
            <g id="Icons/csv" transform="translate(3.000000, 3.000000)">
                <g id="csv">
                    <polygon id="Path" fill="#EFEEEE" points="3 0 3 18 13.5 18 18 13.5 18 0"></polygon>
                    <polygon id="Path" fill="#ABABAB" points="13.5 13.5 13.5 18 18 13.5"></polygon>
                    <polygon id="Path" fill="#DEDEDD" points="8 18 13.5 18 13.5 13.5"></polygon>
                    <polygon id="Path" fill="#448E47" points="0 4 0 10 12 10 12 4"></polygon>
                    <g id="Group" transform="translate(2.000000, 5.000000)" fill="#FFFFFF">
                        <path d="M1.39619048,0.784 C1.33980952,0.656888889 1.23695238,0.593777778 1.08761905,0.593777778 C1.00533333,0.593777778 0.93752381,0.619555556 0.884190476,0.672 C0.830857143,0.723555556 0.788952381,0.806222222 0.75847619,0.921777778 C0.728,1.03733333 0.706666667,1.18844444 0.69447619,1.376 C0.68152381,1.56266667 0.676190476,1.79111111 0.676190476,2.06133333 C0.676190476,2.34933333 0.684571429,2.58222222 0.701333333,2.76 C0.717333333,2.93777778 0.744,3.07466667 0.779047619,3.17333333 C0.814095238,3.272 0.858285714,3.33777778 0.911619048,3.37066667 C0.964952381,3.40444444 1.02666667,3.42222222 1.0967619,3.42222222 C1.15466667,3.42222222 1.2087619,3.41066667 1.25904762,3.38755556 C1.30933333,3.36444444 1.3527619,3.31822222 1.38933333,3.24888889 C1.42666667,3.17955556 1.45561905,3.08177778 1.47619048,2.95555556 C1.49752381,2.82933333 1.50819048,2.66311111 1.50819048,2.45688889 L2.16571429,2.45688889 C2.16571429,2.66222222 2.152,2.85866667 2.12457143,3.04355556 C2.09714286,3.22844444 2.04533333,3.39022222 1.97142857,3.52888889 C1.896,3.66666667 1.79161905,3.77511111 1.656,3.85333333 C1.52038095,3.93155556 1.34438095,3.97155556 1.128,3.97155556 C0.881904762,3.97155556 0.684571429,3.92444444 0.539047619,3.83288889 C0.392761905,3.74044444 0.280761905,3.60711111 0.203047619,3.43288889 C0.125333333,3.25866667 0.075047619,3.05066667 0.0521904762,2.80888889 C0.0300952381,2.568 0.0179047619,2.30044444 0.0179047619,2.00977778 C0.0179047619,1.72177778 0.0300952381,1.456 0.0521904762,1.21244444 C0.075047619,0.969777778 0.126095238,0.76 0.203047619,0.585777778 C0.28152381,0.412444444 0.392761905,0.275555556 0.539047619,0.177777778 C0.684571429,0.0808888889 0.881904762,0.0311111111 1.128,0.0311111111 C1.36342857,0.0311111111 1.54780952,0.0755555556 1.68342857,0.164444444 C1.81904762,0.253333333 1.92038095,0.366222222 1.98666667,0.503111111 C2.05295238,0.64 2.09638095,0.787555556 2.11238095,0.945777778 C2.12914286,1.104 2.13752381,1.25244444 2.13752381,1.39111111 L1.48,1.39111111 C1.48,1.11111111 1.45180952,0.909333333 1.39619048,0.784 Z" id="Path"></path>
                        <path d="M3.5272381,2.83377778 C3.5272381,2.92266667 3.53409524,3.00355556 3.54552381,3.07555556 C3.55847619,3.14844444 3.58057143,3.20977778 3.61409524,3.25955556 C3.64761905,3.31022222 3.69333333,3.34933333 3.74971429,3.37777778 C3.80533333,3.40533333 3.87695238,3.42044444 3.96152381,3.42044444 C4.06285714,3.42044444 4.1527619,3.38222222 4.23352381,3.30577778 C4.31352381,3.22933333 4.35466667,3.11022222 4.35466667,2.95111111 C4.35466667,2.86577778 4.344,2.792 4.32495238,2.72977778 C4.30514286,2.66755556 4.27238095,2.61155556 4.22666667,2.56266667 C4.18019048,2.512 4.12,2.46755556 4.04609524,2.42666667 C3.97219048,2.38577778 3.8792381,2.344 3.76952381,2.30133333 C3.624,2.24444444 3.49752381,2.18133333 3.39009524,2.11377778 C3.28342857,2.04711111 3.19428571,1.968 3.12266667,1.87644444 C3.05104762,1.78577778 2.99847619,1.68088889 2.96495238,1.56177778 C2.93142857,1.44177778 2.91466667,1.30488889 2.91466667,1.14755556 C2.91466667,0.770666667 3.00457143,0.490666667 3.18438095,0.305777778 C3.36342857,0.120888889 3.61104762,0.0284444444 3.92495238,0.0284444444 C4.0712381,0.0284444444 4.20609524,0.0471111111 4.32952381,0.0844444444 C4.45295238,0.121777778 4.55961905,0.181333333 4.64952381,0.265777778 C4.73942857,0.349333333 4.80952381,0.456 4.85980952,0.584888889 C4.90933333,0.714666667 4.9352381,0.870222222 4.9352381,1.05155556 L4.9352381,1.15822222 L4.30514286,1.15822222 C4.30514286,0.976888889 4.27771429,0.837333333 4.22361905,0.738666667 C4.1687619,0.641777778 4.07733333,0.592 3.94933333,0.592 C3.87619048,0.592 3.8152381,0.605333333 3.76647619,0.629333333 C3.71847619,0.654222222 3.67885714,0.687111111 3.64990476,0.728 C3.62095238,0.768888889 3.60038095,0.817777778 3.58971429,0.871111111 C3.57828571,0.924444444 3.57371429,0.979555556 3.57371429,1.03644444 C3.57371429,1.15466667 3.59504762,1.25244444 3.63771429,1.33244444 C3.68038095,1.41333333 3.77180952,1.48711111 3.912,1.55377778 L4.41942857,1.80977778 C4.54438095,1.87377778 4.64647619,1.94044444 4.72495238,2.01066667 C4.80419048,2.08 4.86819048,2.15466667 4.91466667,2.23466667 C4.96190476,2.31466667 4.99466667,2.40177778 5.01295238,2.49866667 C5.0312381,2.59377778 5.04038095,2.70133333 5.04038095,2.81777778 C5.04038095,3.21955556 4.94057143,3.512 4.74095238,3.69511111 C4.54133333,3.87822222 4.2632381,3.97066667 3.90666667,3.97066667 C3.53485714,3.97066667 3.26895238,3.87644444 3.10819048,3.688 C2.94819048,3.49955556 2.86895238,3.22933333 2.86895238,2.87733333 L2.86895238,2.72266667 L3.5272381,2.72266667 L3.5272381,2.83377778 L3.5272381,2.83377778 Z" id="Path"></path>
                        <polygon id="Path" points="6.77828571 2.91911111 6.7927619 2.91911111 7.27733333 0.103111111 7.9592381 0.103111111 7.20952381 3.91111111 6.36380952 3.91111111 5.61485714 0.103111111 6.31885714 0.103111111"></polygon>
                    </g>
                </g>
            </g>
        </g>
    </g>
</svg>