<?xml version="1.0" encoding="UTF-8"?>
<svg width="24px" height="24px" viewBox="0 0 24 24" version="1.1" xmlns="http://www.w3.org/2000/svg" xmlns:xlink="http://www.w3.org/1999/xlink">
    <title>Icons/File types/list</title>
    <defs>
        <linearGradient x1="20.9742575%" y1="20.1391406%" x2="127.991457%" y2="130.234974%" id="linearGradient-1">
            <stop stop-color="#EFEEEE" offset="0%"></stop>
            <stop stop-color="#DEDEDD" offset="100%"></stop>
        </linearGradient>
    </defs>
    <g id="Icons/File-types/list" stroke="none" stroke-width="1" fill="none" fill-rule="evenodd">
        <g id="Group">
            <rect id="Rectangle" x="0" y="0" width="24" height="24"></rect>
            <polygon id="Path" fill="url(#linearGradient-1)" fill-rule="nonzero" points="3 2 3 22 21 22 21 2"></polygon>
            <polygon id="Path-85-Copy" fill="#B8B8B8" fill-rule="nonzero" points="11 5 11 6 5 6 5 5"></polygon>
            <polygon id="Path-85-Copy-2" fill="#B8B8B8" fill-rule="nonzero" points="19 5 19 6 13 6 13 5"></polygon>
            <polygon id="Path-85" fill="#B8B8B8" fill-rule="nonzero" points="11 7 11 8 5 8 5 7"></polygon>
            <polygon id="Path-85-Copy-3" fill="#B8B8B8" fill-rule="nonzero" points="19 7 19 8 13 8 13 7"></polygon>
            <polygon id="Path-85-Copy-4" fill="#B8B8B8" fill-rule="nonzero" points="11 9 11 10 5 10 5 9"></polygon>
            <polygon id="Path-85-Copy-6" fill="#B8B8B8" fill-rule="nonzero" points="11 11 11 12 5 12 5 11"></polygon>
            <polygon id="Path-85-Copy-5" fill="#B8B8B8" fill-rule="nonzero" points="19 9 19 10 13 10 13 9"></polygon>
            <polygon id="Path-85-Copy-7" fill="#B8B8B8" fill-rule="nonzero" points="19 11 19 12 13 12 13 11"></polygon>
        </g>
    </g>
</svg>