<?xml version="1.0" encoding="UTF-8"?>
<svg width="24px" height="24px" viewBox="0 0 24 24" version="1.1" xmlns="http://www.w3.org/2000/svg" xmlns:xlink="http://www.w3.org/1999/xlink">
    <title>Icons/File types/text</title>
    <g id="Icons/File-types/text" stroke="none" stroke-width="1" fill="none" fill-rule="evenodd">
        <g id="Group">
            <rect id="Rectangle" x="0" y="0" width="24" height="24"></rect>
            <rect id="Rectangle" x="0" y="0" width="24" height="24"></rect>
            <polygon id="Path" fill="#EFEEEE" fill-rule="nonzero" points="5 2 5 22 16.9 22 22 17 22 2"></polygon>
            <polygon id="Path" fill="#15498A" fill-rule="nonzero" points="2 6 2 15 18 15 18 6"></polygon>
            <path d="M6.21826172,12.9013672 L6.21826172,8.69042969 L7.62646484,8.69042969 L7.62646484,8 L4,8 L4,8.69042969 L5.40478516,8.69042969 L5.40478516,12.9013672 L6.21826172,12.9013672 Z M8.66123047,12.9013672 L9.696875,11.1035156 C9.74472656,10.9986979 9.77890625,10.921224 9.79941406,10.8710938 L9.79941406,10.8710938 L9.81308594,10.8710938 C9.84954427,10.9713542 9.88258463,11.0488281 9.91220703,11.1035156 L9.91220703,11.1035156 L10.9170898,12.9013672 L11.8912109,12.9013672 L10.349707,10.4301758 L11.8604492,8 L10.9444336,8 L10.025,9.640625 C9.97714844,9.7249349 9.92018229,9.83886719 9.85410156,9.98242188 L9.85410156,9.98242188 L9.84384765,9.98242188 C9.79827474,9.87304688 9.74700521,9.76367188 9.69003906,9.65429688 L9.69003906,9.65429688 L8.80478515,8 L7.81015625,8 L9.28671875,10.4370117 L7.68027344,12.9013672 L8.66123047,12.9013672 Z M14.3239258,12.9013672 L14.3239258,8.69042969 L15.7321289,8.69042969 L15.7321289,8 L12.1056641,8 L12.1056641,8.69042969 L13.5104492,8.69042969 L13.5104492,12.9013672 L14.3239258,12.9013672 Z" id="TXT" fill="#FFFFFF" fill-rule="nonzero"></path>
        </g>
        <polygon id="Path" fill="#ABABAB" fill-rule="nonzero" points="17 17 17 22 22 17"></polygon>
        <polygon id="Path" fill="#DEDEDD" fill-rule="nonzero" points="12 22 17 22 17 17"></polygon>
    </g>
</svg>