<?xml version="1.0" encoding="UTF-8"?>
<svg width="24px" height="24px" viewBox="0 0 24 24" version="1.1" xmlns="http://www.w3.org/2000/svg" xmlns:xlink="http://www.w3.org/1999/xlink">
    <title>Icons/File types/zip</title>
    <g id="Icons/File-types/zip" stroke="none" stroke-width="1" fill="none" fill-rule="evenodd">
        <g id="Group">
            <rect id="Rectangle" x="0" y="0" width="24" height="24"></rect>
            <rect id="Rectangle" x="0" y="0" width="24" height="24"></rect>
            <polygon id="Path" fill="#EFEEEE" fill-rule="nonzero" points="5 2 5 22 16.9 22 22 17 22 2"></polygon>
            <polygon id="Path" fill="#ABABAB" fill-rule="nonzero" points="17 17 17 22 22 17"></polygon>
            <polygon id="Path" fill="#DEDEDD" fill-rule="nonzero" points="12 22 17 22 17 17"></polygon>
            <polygon id="Path" fill="#45297F" fill-rule="nonzero" points="2 6 2 15 18 15 18 6"></polygon>
            <path d="M8.79052734,12.9013672 L8.79052734,12.2143555 L6.13818359,12.2143555 L8.82470703,8.35546875 L8.82470703,8 L5.20849609,8 L5.20849609,8.69042969 L7.69677734,8.69042969 L5,12.5288086 L5,12.9013672 L8.79052734,12.9013672 Z M10.3243164,12.9013672 L10.3243164,8 L9.48691406,8 L9.48691406,12.9013672 L10.3243164,12.9013672 Z M12.240918,12.9013672 L12.240918,11.1240234 L12.89375,11.1240234 C13.4451823,11.1240234 13.8826823,10.9724935 14.20625,10.6694336 C14.5298177,10.3663737 14.6916016,9.97672526 14.6916016,9.50048828 C14.6916016,9.0242513 14.5366536,8.65511068 14.2267578,8.39306641 C13.916862,8.13102214 13.4805013,8 12.9176758,8 L12.9176758,8 L11.4308594,8 L11.4308594,12.9013672 L12.240918,12.9013672 Z M12.7672852,10.4609375 L12.240918,10.4609375 L12.240918,8.66992188 L12.8322266,8.66992188 C13.5021484,8.66992188 13.8371094,8.95817057 13.8371094,9.53466797 C13.8371094,9.82861328 13.7459635,10.0564779 13.5636719,10.2182617 C13.3813802,10.3800456 13.115918,10.4609375 12.7672852,10.4609375 L12.7672852,10.4609375 Z" id="ZIP" fill="#FFFFFF" fill-rule="nonzero"></path>
        </g>
    </g>
</svg>