<?xml version="1.0" encoding="UTF-8"?>
<svg width="127px" height="122px" viewBox="0 0 127 122" version="1.1" xmlns="http://www.w3.org/2000/svg" xmlns:xlink="http://www.w3.org/1999/xlink">
    <title>Avoid duplicates</title>
    <defs>
        <filter id="filter-1">
            <feColorMatrix in="SourceGraphic" type="matrix" values="0 0 0 0 0.180392 0 0 0 0 0.188235 0 0 0 0 0.580392 0 0 0 1.000000 0"></feColorMatrix>
        </filter>
    </defs>
    <g id="IFU-Member" stroke="none" stroke-width="1" fill="none" fill-rule="evenodd">
        <g id="Dashboard" transform="translate(-1290.000000, -549.000000)">
            <g id="Avoid-duplicates" transform="translate(1290.000000, 549.000000)">
                <rect id="Rectangle-Copy-2" fill-opacity="0.05" fill="#000000" x="0" y="0" width="127" height="122" rx="61"></rect>
                <g filter="url(#filter-1)" id="merge">
                    <g transform="translate(34.000000, 40.000000)">
                        <path d="M10.2287719,7.33578947 L7.92140351,4.38842105 C6.84081871,5.23520468 5.84725146,6.18736842 4.95532164,7.23099415 L7.79976608,9.66374269 C8.52994152,8.80888889 9.34374269,8.02900585 10.2287719,7.33578947 Z" id="Path" fill="#000000" fill-rule="nonzero"></path>
                        <path d="M49.3216374,2.60538012 C46.2623392,0.905847953 42.8203509,0.0142690058 39.3207018,0.0149703463 C36.0653801,0.0167251462 32.8576608,0.795555556 29.9639766,2.28678363 C24.1431579,-0.707602339 17.2426901,-0.74374269 11.3908772,2.18947368 L13.0750877,5.5354386 C17.1636257,3.48280702 21.9146199,3.19473684 26.2212865,4.73824561 C17.4611696,11.9617544 16.2155556,24.9189474 23.4390643,33.6790643 C24.2754386,34.6933333 25.2070175,35.6249123 26.2212865,36.4612865 C17.4502924,39.5580117 7.82959064,34.9581287 4.7328655,26.1870175 C3.12947368,21.645731 3.54701754,16.6353216 5.87976608,12.4219883 L2.60865497,10.6030409 C-2.92397661,20.5216374 0.631695906,33.0472515 10.5502924,38.579883 C16.5584795,41.9312281 23.8444444,42.0561404 29.9639766,38.9127485 C35.7847953,41.9071345 42.6852632,41.9432749 48.537076,39.0100585 L46.8528655,35.6640936 C42.7643275,37.7167251 38.0133333,38.0047953 33.7066667,36.4612865 C42.4667836,29.2377778 43.7123977,16.2805848 36.4888889,7.52046784 C35.6525146,6.50619883 34.7209357,5.57461988 33.7066667,4.73824561 C42.4776608,1.64152047 52.0983626,6.24152047 55.1950877,15.0125146 C56.7984795,19.5538012 56.3809357,24.5642105 54.0481871,28.7775439 L57.3192982,30.5964912 C62.8403509,20.6584795 59.2596491,8.12643275 49.3216374,2.60538012 Z M29.9639766,6.60596491 C31.1419883,7.40432749 32.2152047,8.34736842 33.1583626,9.41298246 L22.5066667,20.0646784 C22.6760234,14.6381287 25.4528655,9.62666667 29.9639766,6.60596491 Z M29.9639766,34.5938012 C28.7639766,33.7825731 27.6727485,32.8210526 26.717193,31.7325146 L37.4287719,21.0209357 C37.2921637,26.4888889 34.508655,31.5500585 29.9639766,34.5938012 Z M35.362807,12.4950877 C36.0140351,13.6940351 36.5167251,14.9678363 36.859883,16.2883041 L24.5090058,28.6391813 C23.8602339,27.4332164 23.3612865,26.1523977 23.0231579,24.8253801 L35.362807,12.4950877 Z" id="Shape" fill="#000000" fill-rule="nonzero"></path>
                        <path d="M49.6991813,33.8639766 L52.0065497,36.811345 C53.0871345,35.9645614 54.0807018,35.0123977 54.9726316,33.9687719 L52.1281871,31.5360234 C51.3980117,32.3908772 50.5843275,33.1707602 49.6991813,33.8639766 Z" id="Path" fill="#000000" fill-rule="nonzero"></path>
                    </g>
                </g>
            </g>
        </g>
    </g>
</svg>