<?xml version="1.0" encoding="UTF-8"?>
<svg width="127px" height="122px" viewBox="0 0 127 122" version="1.1" xmlns="http://www.w3.org/2000/svg" xmlns:xlink="http://www.w3.org/1999/xlink">
    <title>Create</title>
    <defs>
        <filter id="filter-1">
            <feColorMatrix in="SourceGraphic" type="matrix" values="0 0 0 0 0.180392 0 0 0 0 0.188235 0 0 0 0 0.580392 0 0 0 1.000000 0"></feColorMatrix>
        </filter>
    </defs>
    <g id="IFU-Member" stroke="none" stroke-width="1" fill="none" fill-rule="evenodd">
        <g id="Dashboard" transform="translate(-817.000000, -549.000000)">
            <g id="Create" transform="translate(817.000000, 549.000000)">
                <rect id="Rectangle-Copy" fill-opacity="0.05" fill="#000000" x="0" y="0" width="127" height="122" rx="61"></rect>
                <g filter="url(#filter-1)" id="add">
                    <g transform="translate(36.000000, 33.000000)">
                        <path d="M41,56 C32.7292308,56 26,49.2707692 26,41 C26,32.7292308 32.7292308,26 41,26 C49.2707692,26 56,32.7292308 56,41 C56,49.2707692 49.2707692,56 41,56 Z M41,29.4615385 C34.6376923,29.4615385 29.4615385,34.6376923 29.4615385,41 C29.4615385,47.3623077 34.6376923,52.5384615 41,52.5384615 C47.3623077,52.5384615 52.5384615,47.3623077 52.5384615,41 C52.5384615,34.6376923 47.3623077,29.4615385 41,29.4615385 Z" id="Shape" fill="#000000" fill-rule="nonzero"></path>
                        <path d="M41,49 C39.896,49 39,48.232 39,47.2857143 L39,34.7142857 C39,33.768 39.896,33 41,33 C42.104,33 43,33.768 43,34.7142857 L43,47.2857143 C43,48.232 42.104,49 41,49 Z" id="Path" fill="#000000" fill-rule="nonzero"></path>
                        <path d="M47.2857143,43 L34.7142857,43 C33.768,43 33,42.104 33,41 C33,39.896 33.768,39 34.7142857,39 L47.2857143,39 C48.232,39 49,39.896 49,41 C49,42.104 48.232,43 47.2857143,43 Z" id="Path" fill="#000000" fill-rule="nonzero"></path>
                        <path d="M46.2681661,21 C45.8252595,21 45.3823529,20.8315808 45.0455594,20.4924353 L35.5069204,10.9548338 C34.8310265,10.27885 34.8310265,9.18297174 35.5069204,8.50698789 C36.1828143,7.83100404 37.2785467,7.83100404 37.9544406,8.50698789 L47.4930796,18.0445894 C48.1689735,18.7205732 48.1689735,19.8164515 47.4930796,20.4924353 C47.1539792,20.8315808 46.7110727,21 46.2681661,21 L46.2681661,21 Z" id="Path" fill="#000000" fill-rule="nonzero"></path>
                        <path d="M1.74955339,56 C1.29454964,56 0.846545953,55.8223966 0.51287654,55.4858848 C0.0322059161,55.004486 -0.126462057,54.2870616 0.104539845,53.6490913 L5.6579189,38.3191103 C5.74658629,38.076074 5.88425409,37.8587435 6.06625559,37.6788032 L41.2532119,2.46191082 C44.5012387,-0.819079016 50.2039523,-0.823752791 53.4636458,2.4665846 C55.0969926,4.10474263 56,6.2710372 56,8.5611868 C56,10.8957373 55.0923259,13.0737163 53.4473123,14.6955161 L46.1322521,22.0216579 C45.4485798,22.7063659 44.3402373,22.7063659 43.6565651,22.0216579 C42.9728928,21.3369499 42.9728928,20.2269285 43.6565651,19.5422205 L50.983292,12.2043942 C51.9656335,11.2369228 52.4999712,9.94462412 52.4999712,8.55884992 C52.4999712,7.20345525 51.9609667,5.91816721 50.983292,4.93667453 C49.0396094,2.97368915 45.6655816,2.97836293 43.7335657,4.93200075 L8.81494489,39.882488 L4.67091077,51.3238884 L16.0950048,47.1735765 L19.5997003,43.6612348 C20.2833726,42.9765268 21.3917151,42.9765268 22.0753874,43.6612348 C22.7590597,44.3459428 22.7590597,45.4559643 22.0753874,46.1406723 L18.2930229,49.9240929 C18.1110214,50.1063701 17.8940196,50.2465833 17.6536843,50.3330482 L2.34689164,55.8948401 C2.15089002,55.9649467 1.95022171,56 1.74955339,56 Z" id="Path" fill="#000000" fill-rule="nonzero"></path>
                        <path d="M17.2812803,50 C16.8417276,50 16.4021749,49.8328563 16.0679317,49.4962793 L6.5030818,39.9324556 C5.83230607,39.2615913 5.83230607,38.1740126 6.5030818,37.5031483 C7.17385753,36.8322839 8.26129259,36.8322839 8.93206833,37.5031483 L18.4969182,47.0692616 C19.1676939,47.7401259 19.1676939,48.8277046 18.4969182,49.498569 C18.1603857,49.8328563 17.720833,50 17.2812803,50 L17.2812803,50 Z" id="Path" fill="#000000" fill-rule="nonzero"></path>
                    </g>
                </g>
            </g>
        </g>
    </g>
</svg>