<?xml version="1.0" encoding="UTF-8"?>
<svg width="128px" height="122px" viewBox="0 0 128 122" version="1.1" xmlns="http://www.w3.org/2000/svg" xmlns:xlink="http://www.w3.org/1999/xlink">
    <title>Explore</title>
    <defs>
        <filter id="filter-1">
            <feColorMatrix in="SourceGraphic" type="matrix" values="0 0 0 0 0.180392 0 0 0 0 0.188235 0 0 0 0 0.580392 0 0 0 1.000000 0"></feColorMatrix>
        </filter>
    </defs>
    <g id="IFU-Member" stroke="none" stroke-width="1" fill="none" fill-rule="evenodd">
        <g id="Dashboard" transform="translate(-817.000000, -395.000000)">
            <g id="Explore" transform="translate(817.000000, 395.000000)">
                <rect id="Rectangle" fill-opacity="0.05" fill="#000000" x="0" y="0" width="128" height="122" rx="61"></rect>
                <g filter="url(#filter-1)" id="explore">
                    <g transform="translate(34.000000, 31.000000)">
                        <path d="M37.077193,0 C24.5014035,0 14.2701754,10.2312281 14.2701754,22.8070175 C14.2701754,27.1922807 15.5154386,31.2916959 17.6692398,34.7722807 L1.54269006,50.8989474 C-0.513918129,52.9555556 -0.514385965,56.2845614 1.5425731,58.3416374 C3.59929825,60.3983626 6.92830409,60.3987135 8.98538012,58.3416374 L25.1119298,42.2150877 C28.5925146,44.3687719 32.6919298,45.6140351 37.077193,45.6140351 C49.6529825,45.6140351 59.8842105,35.382807 59.8842105,22.8070175 C59.8842105,10.2312281 49.6530994,0 37.077193,0 Z M6.50432749,55.8604678 C5.81871345,56.5459649 4.70947368,56.5460819 4.02374269,55.8604678 C3.33836257,55.1752047 3.33812865,54.0654971 4.02374269,53.38 L19.765614,37.6381287 C20.5280702,38.5267836 21.3575439,39.3562573 22.2461988,40.1187135 L6.50432749,55.8604678 Z M37.077193,42.1052632 C26.4361404,42.1052632 17.7789474,33.4480702 17.7789474,22.8070175 C17.7789474,12.1659649 26.4361404,3.50877193 37.077193,3.50877193 C47.7182456,3.50877193 56.3754386,12.1659649 56.3754386,22.8070175 C56.3754386,33.4480702 47.7183626,42.1052632 37.077193,42.1052632 Z" id="Shape" fill="#000000" fill-rule="nonzero"></path>
                        <path d="M37.077193,7.01754386 C28.3708772,7.01754386 21.2877193,14.1007018 21.2877193,22.8070175 C21.2877193,31.5133333 28.3708772,38.5964912 37.077193,38.5964912 C45.7835088,38.5964912 52.8666667,31.5133333 52.8666667,22.8070175 C52.8666667,14.1007018 45.7836257,7.01754386 37.077193,7.01754386 Z M49.2320468,21.0526316 L44.054269,21.0526316 C43.9174269,17.9865497 43.3908772,14.4973099 42.1932164,11.6439766 C45.9090058,13.3536842 48.6304094,16.8652632 49.2320468,21.0526316 L49.2320468,21.0526316 Z M37.077193,35.0877193 C35.0491228,35.0877193 33.7561404,27.5353216 33.6118129,24.5602339 L40.5424561,24.5602339 C40.3604678,28.3145029 38.9087719,35.0877193 37.077193,35.0877193 Z M33.6119298,21.0526316 C33.7940351,17.2995322 35.245731,10.5263158 37.0773099,10.5263158 C39.1053801,10.5263158 40.3983626,18.0787135 40.5426901,21.0526316 L33.6119298,21.0526316 Z M31.9612865,11.6439766 C30.7637427,14.4968421 30.237076,17.985848 30.1002339,21.0526316 L24.9224561,21.0526316 C25.5239766,16.8652632 28.2454971,13.3536842 31.9612865,11.6439766 Z M24.9223392,24.5614035 L30.100117,24.5614035 C30.2369591,27.6274854 30.7635088,31.1167251 31.9611696,33.9700585 C28.2454971,32.2603509 25.5239766,28.7487719 24.9223392,24.5614035 L24.9223392,24.5614035 Z M42.1930994,33.9700585 C43.3906433,31.117193 43.9173099,27.6281871 44.054152,24.5602339 L49.2319298,24.5602339 C48.6304094,28.7487719 45.9090058,32.2603509 42.1930994,33.9700585 L42.1930994,33.9700585 Z" id="Shape" fill="#000000" fill-rule="nonzero"></path>
                    </g>
                </g>
            </g>
        </g>
    </g>
</svg>