<?xml version="1.0" encoding="UTF-8"?>
<svg width="128px" height="122px" viewBox="0 0 128 122" version="1.1" xmlns="http://www.w3.org/2000/svg" xmlns:xlink="http://www.w3.org/1999/xlink">
    <title>Map</title>
    <defs>
        <filter id="filter-1">
            <feColorMatrix in="SourceGraphic" type="matrix" values="0 0 0 0 0.180392 0 0 0 0 0.188235 0 0 0 0 0.580392 0 0 0 1.000000 0"></feColorMatrix>
        </filter>
    </defs>
    <g id="IFU-Member" stroke="none" stroke-width="1" fill="none" fill-rule="evenodd">
        <g id="Dashboard" transform="translate(-1290.000000, -395.000000)">
            <g id="Map" transform="translate(1290.000000, 395.000000)">
                <rect id="Rectangle" fill-opacity="0.05" fill="#000000" x="0" y="0" width="128" height="122" rx="61"></rect>
                <g filter="url(#filter-1)" id="multi-channel">
                    <g transform="translate(41.000000, 36.000000)">
                        <path d="M46.875,16.1132812 C46.875,12.8824219 44.2464844,10.2539062 41.015625,10.2539062 C39.5166992,10.2539062 38.1479492,10.8203125 37.1106445,11.7495117 L27.6974609,5.47392578 C27.7850586,5.12851562 27.8320312,4.76689453 27.8320312,4.39453125 C27.8320312,1.97138672 25.8606445,0 23.4375,0 C21.0143555,0 19.0429687,1.97138672 19.0429687,4.39453125 C19.0429687,4.76689453 19.0899414,5.12851562 19.1775391,5.47402344 L9.76435547,11.7496094 C8.72705078,10.8203125 7.35830078,10.2539062 5.859375,10.2539062 C2.62851562,10.2539062 -8.32667268e-15,12.8824219 -8.32667268e-15,16.1132812 C-8.32667268e-15,18.8384766 1.87021484,21.1351563 4.39453125,21.7873047 L4.39453125,31.209082 C2.68955078,31.8137695 1.46484375,33.4419922 1.46484375,35.3516602 C1.46484375,37.7748047 3.43623047,39.7461914 5.859375,39.7461914 C7.04208984,39.7461914 8.11621094,39.2757813 8.90703125,38.5132813 L17.7083984,42.9139648 C17.6236328,43.309668 17.578125,43.7198242 17.578125,44.140625 C17.578125,47.3714844 20.2066406,50 23.4375,50 C26.6683594,50 29.296875,47.3714844 29.296875,44.140625 C29.296875,43.7198242 29.2513672,43.309668 29.1666992,42.9137695 L37.9680664,38.5130859 C38.7587891,39.2756836 39.8329102,39.7460938 41.015625,39.7460938 C43.4387695,39.7460938 45.4101562,37.774707 45.4101562,35.3515625 C45.4101562,33.4418945 44.1854492,31.8136719 42.4804687,31.2089844 L42.4804687,21.787207 C45.0047852,21.1351563 46.875,18.8384766 46.875,16.1132812 L46.875,16.1132812 Z M41.015625,13.1835938 C42.6310547,13.1835938 43.9453125,14.4978516 43.9453125,16.1132812 C43.9453125,17.7287109 42.6310547,19.0429688 41.015625,19.0429688 C39.4001953,19.0429688 38.0859375,17.7287109 38.0859375,16.1132812 C38.0859375,14.4924805 39.4077148,13.1835938 41.015625,13.1835938 Z M23.4375,26.3671875 C22.6297852,26.3671875 21.9726563,25.7100586 21.9726563,24.9023438 C21.9726563,24.0946289 22.6297852,23.4375 23.4375,23.4375 C24.2452148,23.4375 24.9023438,24.0946289 24.9023438,24.9023438 C24.9023438,25.7100586 24.2452148,26.3671875 23.4375,26.3671875 Z M26.4851562,21.7407227 C25.6943359,20.9782227 24.6202148,20.5078125 23.4375,20.5078125 C22.2547852,20.5078125 21.1806641,20.9782227 20.3898437,21.7407227 L11.5884766,17.3400391 C11.6732422,16.9442383 11.71875,16.534082 11.71875,16.1132812 C11.71875,15.4380859 11.6025391,14.7898438 11.3915039,14.1857422 L20.8042969,7.91044922 C21.5386719,8.46191406 22.4505859,8.7890625 23.4375,8.7890625 C24.4244141,8.7890625 25.3363281,8.46191406 26.0707031,7.91044922 L35.4834961,14.1857422 C35.2724609,14.7898438 35.15625,15.4380859 35.15625,16.1132812 C35.15625,16.534082 35.2017578,16.9442383 35.2864258,17.3401367 L26.4851562,21.7407227 Z M23.4375,2.9296875 C24.2452148,2.9296875 24.9023438,3.58681641 24.9023438,4.39453125 C24.9023438,5.20224609 24.2452148,5.859375 23.4375,5.859375 C22.6297852,5.859375 21.9726563,5.20224609 21.9726563,4.39453125 C21.9726563,3.58681641 22.6297852,2.9296875 23.4375,2.9296875 L23.4375,2.9296875 Z M2.9296875,16.1132812 C2.9296875,14.4978516 4.24394531,13.1835938 5.859375,13.1835938 C7.47099609,13.1835938 8.7890625,14.4958008 8.7890625,16.1132812 C8.7890625,17.7287109 7.47480469,19.0429688 5.859375,19.0429688 C4.24394531,19.0429688 2.9296875,17.7287109 2.9296875,16.1132812 Z M5.859375,36.8164062 C5.05166016,36.8164062 4.39453125,36.1592773 4.39453125,35.3515625 C4.39453125,34.5438477 5.05166016,33.8867188 5.859375,33.8867188 C6.66708984,33.8867188 7.32421875,34.5438477 7.32421875,35.3515625 C7.32421875,36.1592773 6.66708984,36.8164062 5.859375,36.8164062 Z M10.2192383,35.89375 C10.2412109,35.715918 10.2539062,35.5352539 10.2539062,35.3515625 C10.2539062,33.4418945 9.02919922,31.8136719 7.32421875,31.2089844 L7.32421875,21.787207 C8.48632812,21.4870117 9.50849609,20.837207 10.274707,19.9585937 L19.0776367,24.3600586 C19.0556641,24.5379883 19.0429688,24.7186523 19.0429688,24.9023437 C19.0429688,26.8120117 20.2676758,28.4402344 21.9726562,29.0449219 L21.9726562,38.4666992 C20.8105469,38.7668945 19.7883789,39.4166992 19.022168,40.2953125 L10.2192383,35.89375 Z M23.4375,47.0703125 C21.8220703,47.0703125 20.5078125,45.7560547 20.5078125,44.140625 C20.5078125,42.5251953 21.8220703,41.2109375 23.4375,41.2109375 C25.0529297,41.2109375 26.3671875,42.5251953 26.3671875,44.140625 C26.3671875,45.7560547 25.0529297,47.0703125 23.4375,47.0703125 L23.4375,47.0703125 Z M24.9023438,38.4666016 L24.9023438,29.0449219 C26.6073242,28.4402344 27.8320313,26.8120117 27.8320313,24.9023438 C27.8320313,24.7186523 27.8193359,24.5379883 27.7973633,24.3601563 L36.600293,19.9586914 C37.3665039,20.8373047 38.3886719,21.4870117 39.5507813,21.7873047 L39.5507813,31.209082 C37.8458008,31.8137695 36.6210938,33.4419922 36.6210938,35.3516602 C36.6210938,35.5353516 36.6337891,35.7160156 36.6557617,35.8938477 L27.852832,40.2953125 C27.0866211,39.4166016 26.0644531,38.7668945 24.9023438,38.4666016 Z M41.015625,36.8164062 C40.2079102,36.8164062 39.5507812,36.1592773 39.5507812,35.3515625 C39.5507812,34.5438477 40.2079102,33.8867188 41.015625,33.8867188 C41.8233398,33.8867188 42.4804688,34.5438477 42.4804688,35.3515625 C42.4804688,36.1592773 41.8233398,36.8164062 41.015625,36.8164062 Z" id="Shape" fill="#000000" fill-rule="nonzero"></path>
                    </g>
                </g>
            </g>
        </g>
    </g>
</svg>