<?xml version="1.0" encoding="UTF-8"?>
<svg width="952px" height="204px" viewBox="0 0 952 204" version="1.1" xmlns="http://www.w3.org/2000/svg" xmlns:xlink="http://www.w3.org/1999/xlink">
    <title>editorial_levels_empty</title>
    <defs>
        <rect id="path-1" x="0" y="0" width="641" height="204"></rect>
        <filter id="filter-3">
            <feColorMatrix in="SourceGraphic" type="matrix" values="0 0 0 0 0.180392 0 0 0 0 0.188235 0 0 0 0 0.580392 0 0 0 1.000000 0"></feColorMatrix>
        </filter>
        <rect id="path-4" x="0" y="0" width="952" height="204"></rect>
        <filter id="filter-6">
            <feColorMatrix in="SourceGraphic" type="matrix" values="0 0 0 0 0.180392 0 0 0 0 0.188235 0 0 0 0 0.580392 0 0 0 1.000000 0"></feColorMatrix>
        </filter>
    </defs>
    <g id="FRAC-review-board" stroke="none" stroke-width="1" fill="none" fill-rule="evenodd">
        <g id="Admin---workflows---Competencies" transform="translate(-941.000000, -452.000000)">
            <g id="editorial_levels_empty" transform="translate(941.000000, 452.000000)">
                <g id="2" transform="translate(311.000000, 0.000000)">
                    <mask id="mask-2" fill="white">
                        <use xlink:href="#path-1"></use>
                    </mask>
                    <g id="Mask"></g>
                    <g filter="url(#filter-3)" id="volume" opacity="0.200000003">
                        <g mask="url(#mask-2)">
                            <g transform="translate(18.000000, -18.000000)" fill="#000000" fill-rule="nonzero">
                                <path d="M592.5,254 L554.5,254 C549.253467,254 545,249.648306 545,244.280612 L545,9.71938776 C545,4.35169388 549.253467,0 554.5,0 L592.5,0 C597.746533,0 602,4.35169388 602,9.71938776 L602,244.280612 C602,249.648306 597.746533,254 592.5,254 Z" id="Path"></path>
                                <path d="M513.5,253 L475.5,253 C470.253467,253 466,248.644776 466,243.272727 L466,48.7272727 C466,43.3552242 470.253467,39 475.5,39 L513.5,39 C518.746533,39 523,43.3552242 523,48.7272727 L523,243.272727 C523,248.644776 518.746533,253 513.5,253 Z" id="Path"></path>
                                <path d="M438.5,254 L400.5,254 C395.253467,254 391,249.647037 391,244.277778 L391,88.7222222 C391,83.352963 395.253467,79 400.5,79 L438.5,79 C443.746533,79 448,83.352963 448,88.7222222 L448,244.277778 C448,249.647037 443.746533,254 438.5,254 Z" id="Path"></path>
                                <path d="M359.5,254 L321.5,254 C316.253467,254 312,249.65059 312,244.285714 L312,127.714286 C312,122.34941 316.253467,118 321.5,118 L359.5,118 C364.746533,118 369,122.34941 369,127.714286 L369,244.285714 C369,249.65059 364.746533,254 359.5,254 Z" id="Path"></path>
                                <path d="M280.5,278 L242.5,278 C237.253467,278 233,273.65059 233,268.285714 L233,151.714286 C233,146.34941 237.253467,142 242.5,142 L280.5,142 C285.746533,142 290,146.34941 290,151.714286 L290,268.285714 C290,273.65059 285.746533,278 280.5,278 Z" id="Path-Copy"></path>
                                <path d="M201.5,302 L163.5,302 C158.253467,302 154,297.65059 154,292.285714 L154,175.714286 C154,170.34941 158.253467,166 163.5,166 L201.5,166 C206.746533,166 211,170.34941 211,175.714286 L211,292.285714 C211,297.65059 206.746533,302 201.5,302 Z" id="Path-Copy-2"></path>
                                <path d="M122.5,326 L84.5,326 C79.2534667,326 75,321.65059 75,316.285714 L75,199.714286 C75,194.34941 79.2534667,190 84.5,190 L122.5,190 C127.746533,190 132,194.34941 132,199.714286 L132,316.285714 C132,321.65059 127.746533,326 122.5,326 Z" id="Path-Copy-3"></path>
                                <path d="M47.5,350 L9.5,350 C4.25346667,350 0,345.65059 0,340.285714 L0,223.714286 C0,218.34941 4.25346667,214 9.5,214 L47.5,214 C52.7465333,214 57,218.34941 57,223.714286 L57,340.285714 C57,345.65059 52.7465333,350 47.5,350 Z" id="Path-Copy-4"></path>
                            </g>
                        </g>
                    </g>
                </g>
                <g id="1" opacity="0.300000012" transform="translate(0.000000, 0.000000)">
                    <mask id="mask-5" fill="white">
                        <use xlink:href="#path-4"></use>
                    </mask>
                    <g id="Mask"></g>
                    <g filter="url(#filter-6)" id="volume" opacity="0.200000003">
                        <g mask="url(#mask-5)">
                            <g transform="translate(18.000000, 25.000000)" fill="#000000" fill-rule="nonzero">
                                <path d="M592.5,270 L554.5,270 C549.253467,270 545,265.648306 545,260.280612 L545,25.7193878 C545,20.3516939 549.253467,16 554.5,16 L592.5,16 C597.746533,16 602,20.3516939 602,25.7193878 L602,260.280612 C602,265.648306 597.746533,270 592.5,270 Z" id="Path"></path>
                                <path d="M670.5,294 L632.5,294 C627.253467,294 623,289.648306 623,284.280612 L623,49.7193878 C623,44.3516939 627.253467,40 632.5,40 L670.5,40 C675.746533,40 680,44.3516939 680,49.7193878 L680,284.280612 C680,289.648306 675.746533,294 670.5,294 Z" id="Path-Copy-5"></path>
                                <path d="M749.5,254 L711.5,254 C706.253467,254 702,249.648306 702,244.280612 L702,9.71938776 C702,4.35169388 706.253467,0 711.5,0 L749.5,0 C754.746533,0 759,4.35169388 759,9.71938776 L759,244.280612 C759,249.648306 754.746533,254 749.5,254 Z" id="Path-Copy-6"></path>
                                <path d="M513.5,218 L475.5,218 C470.253467,218 466,213.644776 466,208.272727 L466,13.7272727 C466,8.35522424 470.253467,4 475.5,4 L513.5,4 C518.746533,4 523,8.35522424 523,13.7272727 L523,208.272727 C523,213.644776 518.746533,218 513.5,218 Z" id="Path"></path>
                                <path d="M438.5,211 L400.5,211 C395.253467,211 391,206.647037 391,201.277778 L391,45.7222222 C391,40.352963 395.253467,36 400.5,36 L438.5,36 C443.746533,36 448,40.352963 448,45.7222222 L448,201.277778 C448,206.647037 443.746533,211 438.5,211 Z" id="Path"></path>
                                <path d="M359.5,211 L321.5,211 C316.253467,211 312,206.65059 312,201.285714 L312,84.7142857 C312,79.3494095 316.253467,75 321.5,75 L359.5,75 C364.746533,75 369,79.3494095 369,84.7142857 L369,201.285714 C369,206.65059 364.746533,211 359.5,211 Z" id="Path"></path>
                                <path d="M280.5,235 L242.5,235 C237.253467,235 233,230.65059 233,225.285714 L233,108.714286 C233,103.34941 237.253467,99 242.5,99 L280.5,99 C285.746533,99 290,103.34941 290,108.714286 L290,225.285714 C290,230.65059 285.746533,235 280.5,235 Z" id="Path-Copy"></path>
                                <path d="M201.5,259 L163.5,259 C158.253467,259 154,254.65059 154,249.285714 L154,132.714286 C154,127.34941 158.253467,123 163.5,123 L201.5,123 C206.746533,123 211,127.34941 211,132.714286 L211,249.285714 C211,254.65059 206.746533,259 201.5,259 Z" id="Path-Copy-2"></path>
                                <path d="M122.5,283 L84.5,283 C79.2534667,283 75,278.65059 75,273.285714 L75,156.714286 C75,151.34941 79.2534667,147 84.5,147 L122.5,147 C127.746533,147 132,151.34941 132,156.714286 L132,273.285714 C132,278.65059 127.746533,283 122.5,283 Z" id="Path-Copy-3"></path>
                                <path d="M47.5,307 L9.5,307 C4.25346667,307 0,302.65059 0,297.285714 L0,180.714286 C0,175.34941 4.25346667,171 9.5,171 L47.5,171 C52.7465333,171 57,175.34941 57,180.714286 L57,297.285714 C57,302.65059 52.7465333,307 47.5,307 Z" id="Path-Copy-4"></path>
                            </g>
                        </g>
                    </g>
                </g>
            </g>
        </g>
    </g>
</svg>