<?xml version="1.0" encoding="UTF-8"?>
<svg width="200px" height="142px" viewBox="0 0 200 142" version="1.1" xmlns="http://www.w3.org/2000/svg" xmlns:xlink="http://www.w3.org/1999/xlink">
    <title>roles_empty</title>
    <defs>
        <linearGradient x1="81.3796668%" y1="17.1321521%" x2="-22.330957%" y2="83.228259%" id="linearGradient-1">
            <stop stop-color="#E4E4E4" offset="0%"></stop>
            <stop stop-color="#B1B1B1" offset="100%"></stop>
        </linearGradient>
        <linearGradient x1="89.1607041%" y1="7.04900198%" x2="21.5227076%" y2="108.28496%" id="linearGradient-2">
            <stop stop-color="#EAEAEA" offset="0%"></stop>
            <stop stop-color="#ECE9E9" offset="99.5629371%"></stop>
        </linearGradient>
    </defs>
    <g id="Version-2" stroke="none" stroke-width="1" fill="none" fill-rule="evenodd">
        <g id="No-role" transform="translate(-1124.000000, -441.000000)">
            <g id="Group" transform="translate(1124.000000, 441.000000)">
                <rect id="Rectangle-Copy-2" fill="url(#linearGradient-1)" x="102" y="12" width="98" height="118" rx="8"></rect>
                <rect id="Rectangle" fill="url(#linearGradient-1)" x="0" y="12" width="98" height="118" rx="8"></rect>
                <rect id="Rectangle-Copy" fill="url(#linearGradient-2)" x="43" y="0" width="118" height="142" rx="8"></rect>
                <path d="M139.263281,64.3882813 L130.137891,62.1488281 C129.635156,60.5492188 128.995313,58.9953125 128.218359,57.4871094 L132.880078,49.7175781 C133.428516,48.8035156 133.291406,47.6609375 132.560156,46.9296875 L126.070312,40.4398438 C125.339062,39.7085937 124.196484,39.5714844 123.282422,40.1199219 L115.512891,44.7816406 C114.004688,44.0046875 112.450781,43.3648438 110.851172,42.8621094 L108.657422,33.7367188 C108.383203,32.73125 107.469141,32 106.417969,32 L97.2773438,32 C96.2261719,32 95.3121094,32.73125 95.0378906,33.7367188 L92.8441406,42.8621094 C91.2445312,43.3648437 89.690625,44.0046875 88.1824219,44.7816406 L80.4128906,40.1199219 C79.4988281,39.5714844 78.35625,39.7085937 77.625,40.4398437 L71.1351562,46.9296875 C70.4039063,47.6609375 70.2667969,48.8035156 70.8152344,49.7175781 L75.4769531,57.4871094 C74.7,58.9953125 74.0601563,60.5492188 73.5574219,62.1488281 L64.7367188,64.3882813 C63.73125,64.6167969 63,65.5308594 63,66.5820312 L63,75.7226562 C63,76.7738281 63.73125,77.6878906 64.7367187,77.9164062 L73.5574219,80.1558594 C74.0601563,81.7554687 74.7,83.309375 75.4769531,84.8175781 L70.8152344,92.5871094 C70.2667969,93.5011719 70.4039062,94.64375 71.1351562,95.375 L77.625,101.864844 C78.35625,102.596094 79.4988281,102.733203 80.4128906,102.184766 L88.1824219,97.5230469 C89.690625,98.3 91.2445312,98.9398438 92.8441406,99.4425781 L95.0378906,108.263281 C95.3121094,109.26875 96.2261719,110 97.2773438,110 L106.417969,110 C107.469141,110 108.383203,109.26875 108.657422,108.263281 L110.851172,99.4425781 C112.450781,98.9398438 114.004687,98.3 115.512891,97.5230469 L123.282422,102.184766 C124.196484,102.733203 125.339062,102.596094 126.070312,101.864844 L132.560156,95.375 C133.291406,94.64375 133.428516,93.5011719 132.880078,92.5871094 L128.218359,84.8175781 C128.995313,83.309375 129.635156,81.7554687 130.137891,80.1558594 L139.263281,77.9164062 C140.26875,77.6878906 141,76.7738281 141,75.7226562 L141,66.5820312 C141,65.5308594 140.26875,64.6167969 139.263281,64.3882813 Z M101.5,83 C95.152,83 90,77.848 90,71.5 C90,65.152 95.152,60 101.5,60 C107.848,60 113,65.152 113,71.5 C113,77.848 107.848,83 101.5,83 Z" id="Shape" fill="#D8D8D8" fill-rule="nonzero"></path>
            </g>
        </g>
    </g>
</svg>