<?xml version="1.0" encoding="UTF-8"?>
<svg width="24px" height="24px" viewBox="0 0 24 24" version="1.1" xmlns="http://www.w3.org/2000/svg" xmlns:xlink="http://www.w3.org/1999/xlink">
    <title>Icons/levels/level-default</title>
    <g id="Icons/levels/level-default" stroke="none" stroke-width="1" fill="none" fill-rule="evenodd" fill-opacity="0.38">
        <g id="Group-4" transform="translate(2.000000, 3.000000)" fill="#000000">
            <path d="M7.19171775,4.87063773 C7.11426666,4.73535842 7.11426666,4.57056781 7.19171775,4.43574807 L9.62472774,0.201909536 C9.77927045,-0.0673031786 10.2200227,-0.0673031786 10.3745327,0.201909536 L12.8079349,4.43574807 C12.885386,4.57053498 12.885386,4.73535842 12.8079349,4.87063773 C12.7304838,5.00542463 12.5876078,5.08808255 12.4329997,5.08808255 L7.56665292,5.08808255 C7.41204486,5.08808255 7.2692342,5.00542463 7.19171775,4.87063773 Z" id="Path"></path>
            <path d="M4.15478532,11.0239915 L15.8453248,11.0239915 C16.000325,11.0239915 16.1431684,10.9413336 16.22026,10.8065467 C16.2977438,10.6717597 16.2977438,10.5064439 16.22026,10.371657 L14.0972504,6.67795088 C14.0197994,6.54316398 13.8769233,6.46050606 13.7223153,6.46050606 L6.27870991,6.46050606 C6.12416721,6.46050606 5.98083367,6.54316398 5.90377474,6.67795088 L3.78030766,10.371657 C3.70282389,10.5064439 3.70282389,10.6717597 3.78030766,10.8065467 C3.85697444,10.940874 3.99985046,11.0239915 4.15478532,11.0239915 Z" id="Path"></path>
            <path d="M19.9420954,16.8476655 L17.5086932,12.6142209 C17.4312094,12.479434 17.2883661,12.3967761 17.1337254,12.3967761 L2.86645016,12.3967761 C2.71190745,12.3967761 2.56857392,12.479434 2.49151498,12.6142209 L0.0581128278,16.8476655 C-0.0193709426,16.9824524 -0.0193709426,17.1477683 0.0581128278,17.2825552 C0.135596598,17.4173421 0.278439939,17.5 0.433048002,17.5 L19.5671275,17.5 C19.7216702,17.5 19.8650037,17.4173421 19.9420954,17.2825552 C20.0190563,17.1477683 20.0195465,16.9820913 19.9420954,16.8476655 Z" id="Path"></path>
        </g>
    </g>
</svg>