<?xml version="1.0" encoding="UTF-8"?>
<svg width="24px" height="24px" viewBox="0 0 24 24" version="1.1" xmlns="http://www.w3.org/2000/svg" xmlns:xlink="http://www.w3.org/1999/xlink">
    <title>Icons/stages/verified</title>
    <g id="Icons/stages/verified" stroke="none" stroke-width="1" fill="none" fill-rule="evenodd">
        <path d="M12,2 C6.48577883,2 2,6.48577883 2,12 C2,17.5142212 6.48577883,22 12,22 C17.5142212,22 22,17.5142212 22,12 C22,6.48577883 17.5142212,2 12,2 Z" id="Path" fill="#1D8923"></path>
        <path d="M16.2238762,10.386996 L10.673341,15.972326 C10.5452232,16.110232 10.3770462,16.1796383 10.2088691,16.1796383 C10.040692,16.1796383 9.8725149,16.110232 9.74439717,15.972326 L7.60922187,13.6740214 C7.35226461,13.3975619 7.35226461,12.950565 7.60922187,12.6741055 C7.86605881,12.3975164 8.2812084,12.3975164 8.53816567,12.6741055 L10.2088691,14.4724521 L15.2949324,9.38708005 C15.5517693,9.11049102 15.9669189,9.11049102 16.2238762,9.38708005 C16.4807132,9.66353956 16.4807132,10.110407 16.2238762,10.386996 Z" id="Path" fill="#FFFFFF"></path>
    </g>
</svg>