<?xml version="1.0" encoding="UTF-8"?>
<svg width="454px" height="114px" viewBox="0 0 454 114" version="1.1" xmlns="http://www.w3.org/2000/svg" xmlns:xlink="http://www.w3.org/1999/xlink">
    <title>FRACING Copy</title>
    <g id="Version-2" stroke="none" stroke-width="1" fill="none" fill-rule="evenodd">
        <g id="FRACING-Copy" fill-rule="nonzero">
            <g id="FRACING-TOOL" transform="translate(0.152000, 0.216000)">
                <path d="M8.64,46.784 L8.64,27.936 L25.984,27.936 L25.984,21.056 L8.64,21.056 L8.64,7.36 L29.184,7.36 L29.184,0.512 L5.68434189e-14,0.512 L5.68434189e-14,46.784 L8.64,46.784 Z M44.2986667,46.784 L44.2986667,28.704 L47.9786667,28.704 C48.832,28.704 49.4773333,28.8213333 49.9146667,29.056 C50.352,29.2906667 50.752,29.6853333 51.1146667,30.24 L51.1146667,30.24 L60.8426667,45.056 C61.504,46.208 62.5706667,46.784 64.0426667,46.784 L64.0426667,46.784 L71.8186667,46.784 L60.2346667,29.696 C59.8506667,29.0986667 59.424,28.5813333 58.9546667,28.144 C58.4853333,27.7066667 57.9733333,27.328 57.4186667,27.008 C59.04,26.5173333 60.4853333,25.8453333 61.7546667,24.992 C63.024,24.1386667 64.0906667,23.1466667 64.9546667,22.016 C65.8186667,20.8853333 66.48,19.6266667 66.9386667,18.24 C67.3973333,16.8533333 67.6266667,15.3813333 67.6266667,13.824 C67.6266667,11.8613333 67.2853333,10.064 66.6026667,8.432 C65.92,6.8 64.8586667,5.39733333 63.4186667,4.224 C61.9786667,3.05066667 60.1333333,2.13866667 57.8826667,1.488 C55.632,0.837333333 52.9386667,0.512 49.8026667,0.512 L49.8026667,0.512 L35.6906667,0.512 L35.6906667,46.784 L44.2986667,46.784 Z M49.6746667,22.528 L44.2986667,22.528 L44.2986667,7.168 L49.8026667,7.168 C52.9813333,7.168 55.344,7.79733333 56.8906667,9.056 C58.4373333,10.3146667 59.2106667,12.1173333 59.2106667,14.464 C59.2106667,15.6373333 59.0186667,16.7146667 58.6346667,17.696 C58.2506667,18.6773333 57.6693333,19.5253333 56.8906667,20.24 C56.112,20.9546667 55.12,21.5146667 53.9146667,21.92 C52.7093333,22.3253333 51.296,22.528 49.6746667,22.528 L49.6746667,22.528 Z M77.5253333,46.784 C78.2506667,46.784 78.8586667,46.5813333 79.3493333,46.176 C79.84,45.7706667 80.1706667,45.3226667 80.3413333,44.832 L80.3413333,44.832 L83.7973333,35.392 L102.965333,35.392 L106.421333,44.832 C106.656,45.3866667 107.008,45.8506667 107.477333,46.224 C107.946667,46.5973333 108.554667,46.784 109.301333,46.784 L109.301333,46.784 L115.957333,46.784 L97.7813333,0.512 L89.0133333,0.512 L70.8053333,46.784 L77.5253333,46.784 Z M100.757333,29.312 L86.0373333,29.312 L91.6373333,13.984 C91.9146667,13.28 92.2026667,12.4533333 92.5013333,11.504 C92.8,10.5546667 93.088,9.536 93.3653333,8.448 C93.664,9.536 93.9626667,10.5493333 94.2613333,11.488 C94.56,12.4266667 94.848,13.2373333 95.1253333,13.92 L95.1253333,13.92 L100.757333,29.312 Z M138.464,47.296 C142.304,47.296 145.594667,46.6773333 148.336,45.44 C151.077333,44.2026667 153.386667,42.4213333 155.264,40.096 L155.264,40.096 L151.872,36.416 C151.509333,36.0533333 151.093333,35.872 150.624,35.872 C150.368,35.872 150.122667,35.9306667 149.888,36.048 C149.653333,36.1653333 149.429333,36.32 149.216,36.512 C148.512,37.152 147.802667,37.6906667 147.088,38.128 C146.373333,38.5653333 145.616,38.9226667 144.816,39.2 C144.016,39.4773333 143.141333,39.68 142.192,39.808 C141.242667,39.936 140.181333,40 139.008,40 C137.045333,40 135.210667,39.632 133.504,38.896 C131.797333,38.16 130.314667,37.0986667 129.056,35.712 C127.797333,34.3253333 126.8,32.6186667 126.064,30.592 C125.328,28.5653333 124.96,26.2506667 124.96,23.648 C124.96,21.0666667 125.301333,18.768 125.984,16.752 C126.666667,14.736 127.626667,13.0293333 128.864,11.632 C130.101333,10.2346667 131.578667,9.168 133.296,8.432 C135.013333,7.696 136.906667,7.328 138.976,7.328 C140.192,7.328 141.264,7.41866667 142.192,7.6 C143.12,7.78133333 143.936,8.00533333 144.64,8.272 C145.344,8.53866667 145.962667,8.832 146.496,9.152 C147.029333,9.472 147.498667,9.76533333 147.904,10.032 C148.309333,10.2986667 148.682667,10.5226667 149.024,10.704 C149.365333,10.8853333 149.696,10.976 150.016,10.976 C150.485333,10.976 150.853333,10.88 151.12,10.688 C151.386667,10.496 151.605333,10.272 151.776,10.016 L151.776,10.016 L154.656,6.016 C152.821333,4.224 150.597333,2.77333333 147.984,1.664 C145.370667,0.554666667 142.378667,1.38555833e-13 139.008,1.38555833e-13 C135.616,1.38555833e-13 132.522667,0.581333333 129.728,1.744 C126.933333,2.90666667 124.528,4.53333333 122.512,6.624 C120.496,8.71466667 118.933333,11.2053333 117.824,14.096 C116.714667,16.9866667 116.16,20.1706667 116.16,23.648 C116.16,27.0826667 116.677333,30.2506667 117.712,33.152 C118.746667,36.0533333 120.234667,38.5493333 122.176,40.64 C124.117333,42.7306667 126.458667,44.3626667 129.2,45.536 C131.941333,46.7093333 135.029333,47.296 138.464,47.296 Z" id="FRAC" fill="#26314B"></path>
                <path d="M169.290667,46.784 L169.290667,0.512 L160.650667,0.512 L160.650667,46.784 L169.290667,46.784 Z M186.677333,46.784 L186.677333,18.368 C186.677333,17.1733333 186.613333,15.872 186.485333,14.464 L186.485333,14.464 L210.645333,45.312 C211.072,45.8453333 211.514667,46.224 211.973333,46.448 C212.432,46.672 213.002667,46.784 213.685333,46.784 L213.685333,46.784 L218.101333,46.784 L218.101333,0.512 L210.517333,0.512 L210.517333,28.64 C210.517333,29.2586667 210.538667,29.9306667 210.581333,30.656 C210.624,31.3813333 210.677333,32.1173333 210.741333,32.864 L210.741333,32.864 L186.485333,1.888 C186.250667,1.58933333 186.037333,1.34933333 185.845333,1.168 C185.653333,0.986666667 185.456,0.848 185.253333,0.752 C185.050667,0.656 184.816,0.592 184.549333,0.56 C184.282667,0.528 183.968,0.512 183.605333,0.512 L183.605333,0.512 L179.093333,0.512 L179.093333,46.784 L186.677333,46.784 Z M249.984,47.296 C253.013333,47.296 255.856,46.896 258.512,46.096 C261.168,45.296 263.669333,44.032 266.016,42.304 L266.016,42.304 L266.016,23.584 L250.656,23.584 L250.656,28.448 C250.656,28.896 250.810667,29.2746667 251.12,29.584 C251.429333,29.8933333 251.861333,30.048 252.416,30.048 L252.416,30.048 L258.24,30.048 L258.24,38.432 C256.96,39.0506667 255.648,39.5413333 254.304,39.904 C252.96,40.2666667 251.434667,40.448 249.728,40.448 C247.338667,40.448 245.173333,40.0693333 243.232,39.312 C241.290667,38.5546667 239.632,37.456 238.256,36.016 C236.88,34.576 235.813333,32.816 235.056,30.736 C234.298667,28.656 233.92,26.2933333 233.92,23.648 C233.92,21.1733333 234.272,18.9333333 234.976,16.928 C235.68,14.9226667 236.682667,13.2053333 237.984,11.776 C239.285333,10.3466667 240.858667,9.248 242.704,8.48 C244.549333,7.712 246.613333,7.328 248.896,7.328 C250.304,7.328 251.546667,7.424 252.624,7.616 C253.701333,7.808 254.672,8.05333333 255.536,8.352 C256.4,8.65066667 257.184,9.00266667 257.888,9.408 L257.888,9.408 L260,10.624 C260.725333,11.072 261.397333,11.2266667 262.016,11.088 C262.634667,10.9493333 263.136,10.5706667 263.52,9.952 L263.52,9.952 L265.984,6.048 C265.024,5.152 263.968,4.33066667 262.816,3.584 C261.664,2.83733333 260.389333,2.20266667 258.992,1.68 C257.594667,1.15733333 256.08,0.746666667 254.448,0.448 C252.816,0.149333333 251.061333,1.38555833e-13 249.184,1.38555833e-13 C245.493333,1.38555833e-13 242.165333,0.576 239.2,1.728 C236.234667,2.88 233.712,4.50133333 231.632,6.592 C229.552,8.68266667 227.946667,11.1786667 226.816,14.08 C225.685333,16.9813333 225.12,20.1706667 225.12,23.648 C225.12,27.0826667 225.706667,30.2506667 226.88,33.152 C228.053333,36.0533333 229.722667,38.5493333 231.888,40.64 C234.053333,42.7306667 236.666667,44.3626667 239.728,45.536 C242.789333,46.7093333 246.208,47.296 249.984,47.296 Z M305.237333,46.784 L305.237333,7.584 L319.189333,7.584 L319.189333,0.512 L282.677333,0.512 L282.677333,7.584 L296.629333,7.584 L296.629333,46.784 L305.237333,46.784 Z M343.904,47.296 C347.424,47.296 350.624,46.704 353.504,45.52 C356.384,44.336 358.848,42.688 360.896,40.576 C362.944,38.464 364.528,35.9626667 365.648,33.072 C366.768,30.1813333 367.328,27.04 367.328,23.648 C367.328,21.3866667 367.077333,19.232 366.576,17.184 C366.074667,15.136 365.344,13.2373333 364.384,11.488 C363.424,9.73866667 362.256,8.15466667 360.88,6.736 C359.504,5.31733333 357.952,4.112 356.224,3.12 C354.496,2.128 352.597333,1.36 350.528,0.816 C348.458667,0.272 346.250667,1.38555833e-13 343.904,1.38555833e-13 C340.405333,1.38555833e-13 337.216,0.592 334.336,1.776 C331.456,2.96 328.986667,4.608 326.928,6.72 C324.869333,8.832 323.274667,11.3333333 322.144,14.224 C321.013333,17.1146667 320.448,20.256 320.448,23.648 C320.448,27.04 321.013333,30.1813333 322.144,33.072 C323.274667,35.9626667 324.869333,38.464 326.928,40.576 C328.986667,42.688 331.456,44.336 334.336,45.52 C337.216,46.704 340.405333,47.296 343.904,47.296 Z M343.904,39.936 C341.642667,39.936 339.610667,39.5626667 337.808,38.816 C336.005333,38.0693333 334.469333,36.9973333 333.2,35.6 C331.930667,34.2026667 330.954667,32.496 330.272,30.48 C329.589333,28.464 329.248,26.1866667 329.248,23.648 C329.248,21.1093333 329.589333,18.832 330.272,16.816 C330.954667,14.8 331.930667,13.088 333.2,11.68 C334.469333,10.272 336.005333,9.19466667 337.808,8.448 C339.610667,7.70133333 341.642667,7.328 343.904,7.328 C346.165333,7.328 348.197333,7.70133333 350,8.448 C351.802667,9.19466667 353.333333,10.272 354.592,11.68 C355.850667,13.088 356.821333,14.8 357.504,16.816 C358.186667,18.832 358.528,21.1093333 358.528,23.648 C358.528,26.1866667 358.186667,28.464 357.504,30.48 C356.821333,32.496 355.850667,34.2026667 354.592,35.6 C353.333333,36.9973333 351.802667,38.0693333 350,38.816 C348.197333,39.5626667 346.165333,39.936 343.904,39.936 Z M395.082667,47.296 C398.602667,47.296 401.802667,46.704 404.682667,45.52 C407.562667,44.336 410.026667,42.688 412.074667,40.576 C414.122667,38.464 415.706667,35.9626667 416.826667,33.072 C417.946667,30.1813333 418.506667,27.04 418.506667,23.648 C418.506667,21.3866667 418.256,19.232 417.754667,17.184 C417.253333,15.136 416.522667,13.2373333 415.562667,11.488 C414.602667,9.73866667 413.434667,8.15466667 412.058667,6.736 C410.682667,5.31733333 409.130667,4.112 407.402667,3.12 C405.674667,2.128 403.776,1.36 401.706667,0.816 C399.637333,0.272 397.429333,1.38555833e-13 395.082667,1.38555833e-13 C391.584,1.38555833e-13 388.394667,0.592 385.514667,1.776 C382.634667,2.96 380.165333,4.608 378.106667,6.72 C376.048,8.832 374.453333,11.3333333 373.322667,14.224 C372.192,17.1146667 371.626667,20.256 371.626667,23.648 C371.626667,27.04 372.192,30.1813333 373.322667,33.072 C374.453333,35.9626667 376.048,38.464 378.106667,40.576 C380.165333,42.688 382.634667,44.336 385.514667,45.52 C388.394667,46.704 391.584,47.296 395.082667,47.296 Z M395.082667,39.936 C392.821333,39.936 390.789333,39.5626667 388.986667,38.816 C387.184,38.0693333 385.648,36.9973333 384.378667,35.6 C383.109333,34.2026667 382.133333,32.496 381.450667,30.48 C380.768,28.464 380.426667,26.1866667 380.426667,23.648 C380.426667,21.1093333 380.768,18.832 381.450667,16.816 C382.133333,14.8 383.109333,13.088 384.378667,11.68 C385.648,10.272 387.184,9.19466667 388.986667,8.448 C390.789333,7.70133333 392.821333,7.328 395.082667,7.328 C397.344,7.328 399.376,7.70133333 401.178667,8.448 C402.981333,9.19466667 404.512,10.272 405.770667,11.68 C407.029333,13.088 408,14.8 408.682667,16.816 C409.365333,18.832 409.706667,21.1093333 409.706667,23.648 C409.706667,26.1866667 409.365333,28.464 408.682667,30.48 C408,32.496 407.029333,34.2026667 405.770667,35.6 C404.512,36.9973333 402.981333,38.0693333 401.178667,38.816 C399.376,39.5626667 397.344,39.936 395.082667,39.936 Z M452.661333,46.784 L452.661333,39.68 L434.165333,39.68 L434.165333,0.512 L425.557333,0.512 L425.557333,46.784 L452.661333,46.784 Z" id="INGTOOL" fill="#676D7C"></path>
            </g>
            <path d="M53.524,109 L53.524,101.608 L60.592,101.608 L60.592,99.712 L53.524,99.712 L53.524,93.7 L61.792,93.7 L61.792,91.804 L51.196,91.804 L51.196,109 L53.524,109 Z M65.18,109 L65.18,101.32 C65.332,100.904 65.502,100.534 65.69,100.21 C65.878,99.886 66.09,99.614 66.326,99.394 C66.562,99.174 66.83,99.008 67.13,98.896 C67.43,98.784 67.772,98.728 68.156,98.728 C68.428,98.728 68.672,98.752 68.888,98.8 C69.104,98.848 69.268,98.872 69.38,98.872 C69.572,98.872 69.692,98.772 69.74,98.572 L69.74,98.572 L69.896,96.976 C69.712,96.856 69.502,96.768 69.266,96.712 C69.03,96.656 68.784,96.628 68.528,96.628 C67.72,96.628 67.036,96.862 66.476,97.33 C65.916,97.798 65.444,98.448 65.06,99.28 L65.06,99.28 L64.916,97.432 C64.884,97.216 64.824,97.064 64.736,96.976 C64.648,96.888 64.488,96.844 64.256,96.844 L64.256,96.844 L63.032,96.844 L63.032,109 L65.18,109 Z M73.884,109.192 C74.348,109.192 74.77,109.15 75.15,109.066 C75.53,108.982 75.888,108.862 76.224,108.706 C76.56,108.55 76.88,108.358 77.184,108.13 C77.488,107.902 77.8,107.64 78.12,107.344 L78.12,107.344 L78.36,108.496 C78.424,108.696 78.512,108.83 78.624,108.898 C78.736,108.966 78.896,109 79.104,109 L79.104,109 L80.052,109 L80.052,101.224 C80.052,100.544 79.96,99.92 79.776,99.352 C79.592,98.784 79.32,98.3 78.96,97.9 C78.6,97.5 78.156,97.188 77.628,96.964 C77.1,96.74 76.496,96.628 75.816,96.628 C74.872,96.628 74.012,96.788 73.236,97.108 C72.46,97.428 71.736,97.912 71.064,98.56 L71.064,98.56 L71.448,99.244 C71.52,99.356 71.608,99.45 71.712,99.526 C71.816,99.602 71.94,99.64 72.084,99.64 C72.268,99.64 72.454,99.574 72.642,99.442 C72.83,99.31 73.054,99.162 73.314,98.998 C73.574,98.834 73.882,98.686 74.238,98.554 C74.594,98.422 75.036,98.356 75.564,98.356 C76.348,98.356 76.944,98.598 77.352,99.082 C77.76,99.566 77.964,100.28 77.964,101.224 L77.964,101.224 L77.964,102.172 C76.58,102.204 75.412,102.33 74.46,102.55 C73.508,102.77 72.736,103.052 72.144,103.396 C71.552,103.74 71.124,104.134 70.86,104.578 C70.596,105.022 70.464,105.484 70.464,105.964 C70.464,106.516 70.554,106.994 70.734,107.398 C70.914,107.802 71.158,108.136 71.466,108.4 C71.774,108.664 72.136,108.862 72.552,108.994 C72.968,109.126 73.412,109.192 73.884,109.192 Z M74.52,107.692 C74.24,107.692 73.978,107.658 73.734,107.59 C73.49,107.522 73.278,107.414 73.098,107.266 C72.918,107.118 72.776,106.928 72.672,106.696 C72.568,106.464 72.516,106.188 72.516,105.868 C72.516,105.532 72.614,105.228 72.81,104.956 C73.006,104.684 73.322,104.448 73.758,104.248 C74.194,104.048 74.758,103.886 75.45,103.762 C76.142,103.638 76.98,103.56 77.964,103.528 L77.964,103.528 L77.964,106.048 C77.724,106.304 77.478,106.532 77.226,106.732 C76.974,106.932 76.71,107.104 76.434,107.248 C76.158,107.392 75.864,107.502 75.552,107.578 C75.24,107.654 74.896,107.692 74.52,107.692 Z M85.252,109 L85.252,99.94 C85.628,99.452 86.04,99.066 86.488,98.782 C86.936,98.498 87.424,98.356 87.952,98.356 C88.704,98.356 89.276,98.596 89.668,99.076 C90.06,99.556 90.256,100.284 90.256,101.26 L90.256,101.26 L90.256,109 L92.404,109 L92.404,101.26 C92.404,100.78 92.474,100.358 92.614,99.994 C92.754,99.63 92.944,99.328 93.184,99.088 C93.424,98.848 93.702,98.666 94.018,98.542 C94.334,98.418 94.668,98.356 95.02,98.356 C95.804,98.356 96.404,98.602 96.82,99.094 C97.236,99.586 97.444,100.308 97.444,101.26 L97.444,101.26 L97.444,109 L99.592,109 L99.592,101.26 C99.592,100.524 99.5,99.87 99.316,99.298 C99.132,98.726 98.866,98.244 98.518,97.852 C98.17,97.46 97.746,97.162 97.246,96.958 C96.746,96.754 96.176,96.652 95.536,96.652 C95.136,96.652 94.742,96.7 94.354,96.796 C93.966,96.892 93.6,97.044 93.256,97.252 C92.912,97.46 92.602,97.724 92.326,98.044 C92.05,98.364 91.824,98.744 91.648,99.184 C91.424,98.408 91.058,97.792 90.55,97.336 C90.042,96.88 89.38,96.652 88.564,96.652 C87.828,96.652 87.18,96.828 86.62,97.18 C86.06,97.532 85.556,97.984 85.108,98.536 L85.108,98.536 L84.952,97.288 C84.88,96.992 84.692,96.844 84.388,96.844 L84.388,96.844 L83.104,96.844 L83.104,109 L85.252,109 Z M107.744,109.168 C108.184,109.168 108.628,109.13 109.076,109.054 C109.524,108.978 109.958,108.864 110.378,108.712 C110.798,108.56 111.192,108.366 111.56,108.13 C111.928,107.894 112.244,107.616 112.508,107.296 L112.508,107.296 L111.908,106.516 C111.812,106.38 111.676,106.312 111.5,106.312 C111.364,106.312 111.202,106.374 111.014,106.498 C110.826,106.622 110.592,106.756 110.312,106.9 C110.032,107.044 109.698,107.178 109.31,107.302 C108.922,107.426 108.46,107.488 107.924,107.488 C107.348,107.488 106.828,107.394 106.364,107.206 C105.9,107.018 105.5,106.734 105.164,106.354 C104.828,105.974 104.566,105.5 104.378,104.932 C104.19,104.364 104.084,103.696 104.06,102.928 L104.06,102.928 L112.184,102.928 C112.384,102.928 112.52,102.872 112.592,102.76 C112.664,102.648 112.7,102.424 112.7,102.088 C112.7,101.224 112.572,100.454 112.316,99.778 C112.06,99.102 111.706,98.534 111.254,98.074 C110.802,97.614 110.266,97.262 109.646,97.018 C109.026,96.774 108.352,96.652 107.624,96.652 C106.744,96.652 105.952,96.806 105.248,97.114 C104.544,97.422 103.948,97.846 103.46,98.386 C102.972,98.926 102.598,99.564 102.338,100.3 C102.078,101.036 101.948,101.828 101.948,102.676 C101.948,103.724 102.092,104.652 102.38,105.46 C102.668,106.268 103.07,106.946 103.586,107.494 C104.102,108.042 104.714,108.458 105.422,108.742 C106.13,109.026 106.904,109.168 107.744,109.168 Z M110.78,101.596 L104.132,101.596 C104.276,100.54 104.646,99.714 105.242,99.118 C105.838,98.522 106.648,98.224 107.672,98.224 C108.16,98.224 108.596,98.306 108.98,98.47 C109.364,98.634 109.69,98.866 109.958,99.166 C110.226,99.466 110.43,99.822 110.57,100.234 C110.71,100.646 110.78,101.1 110.78,101.596 L110.78,101.596 Z M119.244,109 C119.492,109 119.652,108.864 119.724,108.592 L119.724,108.592 L122.46,100.36 C122.524,100.168 122.576,99.978 122.616,99.79 C122.656,99.602 122.696,99.416 122.736,99.232 C122.776,99.416 122.816,99.602 122.856,99.79 C122.896,99.978 122.948,100.164 123.012,100.348 L123.012,100.348 L125.7,108.592 C125.78,108.864 125.924,109 126.132,109 L126.132,109 L127.824,109 L131.76,96.844 L130.152,96.844 C130,96.844 129.868,96.886 129.756,96.97 C129.644,97.054 129.568,97.16 129.528,97.288 L129.528,97.288 L127.152,105.112 C127.08,105.4 127.014,105.678 126.954,105.946 C126.894,106.214 126.844,106.48 126.804,106.744 C126.74,106.48 126.672,106.212 126.6,105.94 C126.528,105.668 126.448,105.392 126.36,105.112 L126.36,105.112 L123.852,97.24 C123.812,97.12 123.74,97.02 123.636,96.94 C123.532,96.86 123.4,96.82 123.24,96.82 L123.24,96.82 L122.304,96.82 C122.16,96.82 122.038,96.86 121.938,96.94 C121.838,97.02 121.768,97.12 121.728,97.24 L121.728,97.24 L119.16,105.112 C119.072,105.392 118.99,105.668 118.914,105.94 C118.838,106.212 118.764,106.48 118.692,106.744 C118.612,106.232 118.504,105.688 118.368,105.112 L118.368,105.112 L116.04,97.288 C116,97.168 115.922,97.064 115.806,96.976 C115.69,96.888 115.548,96.844 115.38,96.844 L115.38,96.844 L113.7,96.844 L117.636,109 L119.244,109 Z M138.604,109.168 C139.492,109.168 140.292,109.022 141.004,108.73 C141.716,108.438 142.324,108.02 142.828,107.476 C143.332,106.932 143.718,106.276 143.986,105.508 C144.254,104.74 144.388,103.876 144.388,102.916 C144.388,101.964 144.254,101.102 143.986,100.33 C143.718,99.558 143.332,98.9 142.828,98.356 C142.324,97.812 141.716,97.392 141.004,97.096 C140.292,96.8 139.492,96.652 138.604,96.652 C137.708,96.652 136.902,96.8 136.186,97.096 C135.47,97.392 134.86,97.812 134.356,98.356 C133.852,98.9 133.466,99.558 133.198,100.33 C132.93,101.102 132.796,101.964 132.796,102.916 C132.796,103.876 132.93,104.74 133.198,105.508 C133.466,106.276 133.852,106.932 134.356,107.476 C134.86,108.02 135.47,108.438 136.186,108.73 C136.902,109.022 137.708,109.168 138.604,109.168 Z M138.604,107.5 C137.388,107.5 136.482,107.098 135.886,106.294 C135.29,105.49 134.992,104.368 134.992,102.928 C134.992,102.208 135.066,101.562 135.214,100.99 C135.362,100.418 135.586,99.936 135.886,99.544 C136.186,99.152 136.562,98.852 137.014,98.644 C137.466,98.436 137.996,98.332 138.604,98.332 C139.804,98.332 140.7,98.736 141.292,99.544 C141.884,100.352 142.18,101.48 142.18,102.928 C142.18,104.368 141.884,105.49 141.292,106.294 C140.7,107.098 139.804,107.5 138.604,107.5 Z M149.036,109 L149.036,101.32 C149.188,100.904 149.358,100.534 149.546,100.21 C149.734,99.886 149.946,99.614 150.182,99.394 C150.418,99.174 150.686,99.008 150.986,98.896 C151.286,98.784 151.628,98.728 152.012,98.728 C152.284,98.728 152.528,98.752 152.744,98.8 C152.96,98.848 153.124,98.872 153.236,98.872 C153.428,98.872 153.548,98.772 153.596,98.572 L153.596,98.572 L153.752,96.976 C153.568,96.856 153.358,96.768 153.122,96.712 C152.886,96.656 152.64,96.628 152.384,96.628 C151.576,96.628 150.892,96.862 150.332,97.33 C149.772,97.798 149.3,98.448 148.916,99.28 L148.916,99.28 L148.772,97.432 C148.74,97.216 148.68,97.064 148.592,96.976 C148.504,96.888 148.344,96.844 148.112,96.844 L148.112,96.844 L146.888,96.844 L146.888,109 L149.036,109 Z M157.572,109 L157.572,103.192 L158.184,103.192 C158.424,103.192 158.602,103.218 158.718,103.27 C158.834,103.322 158.952,103.432 159.072,103.6 L159.072,103.6 L163.068,108.58 C163.164,108.74 163.278,108.85 163.41,108.91 C163.542,108.97 163.7,109 163.884,109 L163.884,109 L165.792,109 L161.04,103 C160.936,102.84 160.826,102.698 160.71,102.574 C160.594,102.45 160.464,102.34 160.32,102.244 C160.568,102.092 160.8,101.88 161.016,101.608 L161.016,101.608 L165.492,96.844 L163.56,96.844 C163.352,96.844 163.186,96.882 163.062,96.958 C162.938,97.034 162.82,97.14 162.708,97.276 L162.708,97.276 L158.868,101.392 C158.748,101.528 158.634,101.618 158.526,101.662 C158.418,101.706 158.284,101.728 158.124,101.728 L158.124,101.728 L157.572,101.728 L157.572,91.324 L155.424,91.324 L155.424,109 L157.572,109 Z M178.484,109.168 C179.372,109.168 180.172,109.022 180.884,108.73 C181.596,108.438 182.204,108.02 182.708,107.476 C183.212,106.932 183.598,106.276 183.866,105.508 C184.134,104.74 184.268,103.876 184.268,102.916 C184.268,101.964 184.134,101.102 183.866,100.33 C183.598,99.558 183.212,98.9 182.708,98.356 C182.204,97.812 181.596,97.392 180.884,97.096 C180.172,96.8 179.372,96.652 178.484,96.652 C177.588,96.652 176.782,96.8 176.066,97.096 C175.35,97.392 174.74,97.812 174.236,98.356 C173.732,98.9 173.346,99.558 173.078,100.33 C172.81,101.102 172.676,101.964 172.676,102.916 C172.676,103.876 172.81,104.74 173.078,105.508 C173.346,106.276 173.732,106.932 174.236,107.476 C174.74,108.02 175.35,108.438 176.066,108.73 C176.782,109.022 177.588,109.168 178.484,109.168 Z M178.484,107.5 C177.268,107.5 176.362,107.098 175.766,106.294 C175.17,105.49 174.872,104.368 174.872,102.928 C174.872,102.208 174.946,101.562 175.094,100.99 C175.242,100.418 175.466,99.936 175.766,99.544 C176.066,99.152 176.442,98.852 176.894,98.644 C177.346,98.436 177.876,98.332 178.484,98.332 C179.684,98.332 180.58,98.736 181.172,99.544 C181.764,100.352 182.06,101.48 182.06,102.928 C182.06,104.368 181.764,105.49 181.172,106.294 C180.58,107.098 179.684,107.5 178.484,107.5 Z M189.444,109 L189.444,98.632 L192.876,98.632 L192.876,97.084 L189.372,97.084 L189.372,95.968 C189.372,95.448 189.43,95.012 189.546,94.66 C189.662,94.308 189.828,94.024 190.044,93.808 C190.26,93.592 190.518,93.436 190.818,93.34 C191.118,93.244 191.452,93.196 191.82,93.196 C192.148,93.196 192.41,93.188 192.606,93.172 C192.802,93.156 192.908,93.052 192.924,92.86 L192.924,92.86 L192.972,91.792 C192.516,91.632 192.016,91.552 191.472,91.552 C190.832,91.552 190.256,91.648 189.744,91.84 C189.232,92.032 188.794,92.314 188.43,92.686 C188.066,93.058 187.786,93.514 187.59,94.054 C187.394,94.594 187.296,95.212 187.296,95.908 L187.296,95.908 L187.296,97.084 L185.376,97.084 L185.376,97.96 C185.376,98.12 185.43,98.242 185.538,98.326 C185.646,98.41 185.784,98.472 185.952,98.512 L185.952,98.512 L187.296,98.668 L187.296,109 L189.444,109 Z M203.036,109 L203.036,101.824 L204.8,101.824 C205.128,101.824 205.37,101.866 205.526,101.95 C205.682,102.034 205.828,102.172 205.964,102.364 L205.964,102.364 L210.428,108.508 C210.628,108.836 210.94,109 211.364,109 L211.364,109 L213.428,109 L208.412,102.172 C208.196,101.852 207.94,101.608 207.644,101.44 C208.308,101.288 208.902,101.064 209.426,100.768 C209.95,100.472 210.394,100.114 210.758,99.694 C211.122,99.274 211.4,98.8 211.592,98.272 C211.784,97.744 211.88,97.176 211.88,96.568 C211.88,95.84 211.756,95.182 211.508,94.594 C211.26,94.006 210.878,93.504 210.362,93.088 C209.846,92.672 209.192,92.354 208.4,92.134 C207.608,91.914 206.668,91.804 205.58,91.804 L205.58,91.804 L200.72,91.804 L200.72,109 L203.036,109 Z M205.484,100.132 L203.036,100.132 L203.036,93.64 L205.58,93.64 C206.924,93.64 207.932,93.9 208.604,94.42 C209.276,94.94 209.612,95.712 209.612,96.736 C209.612,97.24 209.524,97.7 209.348,98.116 C209.172,98.532 208.91,98.89 208.562,99.19 C208.214,99.49 207.782,99.722 207.266,99.886 C206.75,100.05 206.156,100.132 205.484,100.132 L205.484,100.132 Z M219.396,109.168 C220.284,109.168 221.084,109.022 221.796,108.73 C222.508,108.438 223.116,108.02 223.62,107.476 C224.124,106.932 224.51,106.276 224.778,105.508 C225.046,104.74 225.18,103.876 225.18,102.916 C225.18,101.964 225.046,101.102 224.778,100.33 C224.51,99.558 224.124,98.9 223.62,98.356 C223.116,97.812 222.508,97.392 221.796,97.096 C221.084,96.8 220.284,96.652 219.396,96.652 C218.5,96.652 217.694,96.8 216.978,97.096 C216.262,97.392 215.652,97.812 215.148,98.356 C214.644,98.9 214.258,99.558 213.99,100.33 C213.722,101.102 213.588,101.964 213.588,102.916 C213.588,103.876 213.722,104.74 213.99,105.508 C214.258,106.276 214.644,106.932 215.148,107.476 C215.652,108.02 216.262,108.438 216.978,108.73 C217.694,109.022 218.5,109.168 219.396,109.168 Z M219.396,107.5 C218.18,107.5 217.274,107.098 216.678,106.294 C216.082,105.49 215.784,104.368 215.784,102.928 C215.784,102.208 215.858,101.562 216.006,100.99 C216.154,100.418 216.378,99.936 216.678,99.544 C216.978,99.152 217.354,98.852 217.806,98.644 C218.258,98.436 218.788,98.332 219.396,98.332 C220.596,98.332 221.492,98.736 222.084,99.544 C222.676,100.352 222.972,101.48 222.972,102.928 C222.972,104.368 222.676,105.49 222.084,106.294 C221.492,107.098 220.596,107.5 219.396,107.5 Z M229.888,109 L229.888,91.324 L227.752,91.324 L227.752,109 L229.888,109 Z M238.244,109.168 C238.684,109.168 239.128,109.13 239.576,109.054 C240.024,108.978 240.458,108.864 240.878,108.712 C241.298,108.56 241.692,108.366 242.06,108.13 C242.428,107.894 242.744,107.616 243.008,107.296 L243.008,107.296 L242.408,106.516 C242.312,106.38 242.176,106.312 242,106.312 C241.864,106.312 241.702,106.374 241.514,106.498 C241.326,106.622 241.092,106.756 240.812,106.9 C240.532,107.044 240.198,107.178 239.81,107.302 C239.422,107.426 238.96,107.488 238.424,107.488 C237.848,107.488 237.328,107.394 236.864,107.206 C236.4,107.018 236,106.734 235.664,106.354 C235.328,105.974 235.066,105.5 234.878,104.932 C234.69,104.364 234.584,103.696 234.56,102.928 L234.56,102.928 L242.684,102.928 C242.884,102.928 243.02,102.872 243.092,102.76 C243.164,102.648 243.2,102.424 243.2,102.088 C243.2,101.224 243.072,100.454 242.816,99.778 C242.56,99.102 242.206,98.534 241.754,98.074 C241.302,97.614 240.766,97.262 240.146,97.018 C239.526,96.774 238.852,96.652 238.124,96.652 C237.244,96.652 236.452,96.806 235.748,97.114 C235.044,97.422 234.448,97.846 233.96,98.386 C233.472,98.926 233.098,99.564 232.838,100.3 C232.578,101.036 232.448,101.828 232.448,102.676 C232.448,103.724 232.592,104.652 232.88,105.46 C233.168,106.268 233.57,106.946 234.086,107.494 C234.602,108.042 235.214,108.458 235.922,108.742 C236.63,109.026 237.404,109.168 238.244,109.168 Z M241.28,101.596 L234.632,101.596 C234.776,100.54 235.146,99.714 235.742,99.118 C236.338,98.522 237.148,98.224 238.172,98.224 C238.66,98.224 239.096,98.306 239.48,98.47 C239.864,98.634 240.19,98.866 240.458,99.166 C240.726,99.466 240.93,99.822 241.07,100.234 C241.21,100.646 241.28,101.1 241.28,101.596 L241.28,101.596 Z M248.784,109.192 C249.528,109.192 250.184,109.092 250.752,108.892 C251.32,108.692 251.8,108.418 252.192,108.07 C252.584,107.722 252.88,107.31 253.08,106.834 C253.28,106.358 253.38,105.84 253.38,105.28 C253.38,104.792 253.29,104.374 253.11,104.026 C252.93,103.678 252.692,103.384 252.396,103.144 C252.1,102.904 251.764,102.704 251.388,102.544 C251.012,102.384 250.626,102.238 250.23,102.106 C249.834,101.974 249.448,101.85 249.072,101.734 C248.696,101.618 248.36,101.484 248.064,101.332 C247.768,101.18 247.53,101 247.35,100.792 C247.17,100.584 247.08,100.324 247.08,100.012 C247.08,99.764 247.134,99.534 247.242,99.322 C247.35,99.11 247.506,98.924 247.71,98.764 C247.914,98.604 248.16,98.478 248.448,98.386 C248.736,98.294 249.06,98.248 249.42,98.248 C249.836,98.248 250.196,98.294 250.5,98.386 C250.804,98.478 251.066,98.578 251.286,98.686 C251.506,98.794 251.692,98.892 251.844,98.98 C251.996,99.068 252.132,99.112 252.252,99.112 C252.452,99.112 252.6,99.024 252.696,98.848 L252.696,98.848 L253.176,98.068 C252.712,97.628 252.162,97.282 251.526,97.03 C250.89,96.778 250.172,96.652 249.372,96.652 C248.684,96.652 248.072,96.748 247.536,96.94 C247,97.132 246.548,97.39 246.18,97.714 C245.812,98.038 245.532,98.414 245.34,98.842 C245.148,99.27 245.052,99.716 245.052,100.18 C245.052,100.7 245.142,101.142 245.322,101.506 C245.502,101.87 245.74,102.176 246.036,102.424 C246.332,102.672 246.67,102.878 247.05,103.042 C247.43,103.206 247.818,103.352 248.214,103.48 C248.61,103.608 248.998,103.73 249.378,103.846 C249.758,103.962 250.096,104.098 250.392,104.254 C250.688,104.41 250.926,104.598 251.106,104.818 C251.286,105.038 251.376,105.316 251.376,105.652 C251.376,105.924 251.326,106.18 251.226,106.42 C251.126,106.66 250.972,106.872 250.764,107.056 C250.556,107.24 250.296,107.386 249.984,107.494 C249.672,107.602 249.308,107.656 248.892,107.656 C248.404,107.656 247.996,107.6 247.668,107.488 C247.34,107.376 247.062,107.252 246.834,107.116 C246.606,106.98 246.412,106.856 246.252,106.744 C246.092,106.632 245.94,106.576 245.796,106.576 C245.66,106.576 245.548,106.604 245.46,106.66 C245.372,106.716 245.296,106.796 245.232,106.9 L245.232,106.9 L244.728,107.716 C245.208,108.148 245.792,108.502 246.48,108.778 C247.168,109.054 247.936,109.192 248.784,109.192 Z M264.26,109.192 C264.724,109.192 265.146,109.15 265.526,109.066 C265.906,108.982 266.264,108.862 266.6,108.706 C266.936,108.55 267.256,108.358 267.56,108.13 C267.864,107.902 268.176,107.64 268.496,107.344 L268.496,107.344 L268.736,108.496 C268.8,108.696 268.888,108.83 269,108.898 C269.112,108.966 269.272,109 269.48,109 L269.48,109 L270.428,109 L270.428,101.224 C270.428,100.544 270.336,99.92 270.152,99.352 C269.968,98.784 269.696,98.3 269.336,97.9 C268.976,97.5 268.532,97.188 268.004,96.964 C267.476,96.74 266.872,96.628 266.192,96.628 C265.248,96.628 264.388,96.788 263.612,97.108 C262.836,97.428 262.112,97.912 261.44,98.56 L261.44,98.56 L261.824,99.244 C261.896,99.356 261.984,99.45 262.088,99.526 C262.192,99.602 262.316,99.64 262.46,99.64 C262.644,99.64 262.83,99.574 263.018,99.442 C263.206,99.31 263.43,99.162 263.69,98.998 C263.95,98.834 264.258,98.686 264.614,98.554 C264.97,98.422 265.412,98.356 265.94,98.356 C266.724,98.356 267.32,98.598 267.728,99.082 C268.136,99.566 268.34,100.28 268.34,101.224 L268.34,101.224 L268.34,102.172 C266.956,102.204 265.788,102.33 264.836,102.55 C263.884,102.77 263.112,103.052 262.52,103.396 C261.928,103.74 261.5,104.134 261.236,104.578 C260.972,105.022 260.84,105.484 260.84,105.964 C260.84,106.516 260.93,106.994 261.11,107.398 C261.29,107.802 261.534,108.136 261.842,108.4 C262.15,108.664 262.512,108.862 262.928,108.994 C263.344,109.126 263.788,109.192 264.26,109.192 Z M264.896,107.692 C264.616,107.692 264.354,107.658 264.11,107.59 C263.866,107.522 263.654,107.414 263.474,107.266 C263.294,107.118 263.152,106.928 263.048,106.696 C262.944,106.464 262.892,106.188 262.892,105.868 C262.892,105.532 262.99,105.228 263.186,104.956 C263.382,104.684 263.698,104.448 264.134,104.248 C264.57,104.048 265.134,103.886 265.826,103.762 C266.518,103.638 267.356,103.56 268.34,103.528 L268.34,103.528 L268.34,106.048 C268.1,106.304 267.854,106.532 267.602,106.732 C267.35,106.932 267.086,107.104 266.81,107.248 C266.534,107.392 266.24,107.502 265.928,107.578 C265.616,107.654 265.272,107.692 264.896,107.692 Z M275.628,109 L275.628,100.048 C276.092,99.528 276.598,99.116 277.146,98.812 C277.694,98.508 278.284,98.356 278.916,98.356 C279.772,98.356 280.41,98.61 280.83,99.118 C281.25,99.626 281.46,100.34 281.46,101.26 L281.46,101.26 L281.46,109 L283.608,109 L283.608,101.26 C283.608,100.572 283.52,99.944 283.344,99.376 C283.168,98.808 282.91,98.322 282.57,97.918 C282.23,97.514 281.806,97.202 281.298,96.982 C280.79,96.762 280.204,96.652 279.54,96.652 C279.108,96.652 278.706,96.698 278.334,96.79 C277.962,96.882 277.61,97.014 277.278,97.186 C276.946,97.358 276.632,97.564 276.336,97.804 C276.04,98.044 275.76,98.312 275.496,98.608 L275.496,98.608 L275.328,97.288 C275.256,96.992 275.068,96.844 274.764,96.844 L274.764,96.844 L273.48,96.844 L273.48,109 L275.628,109 Z M290.608,109.168 C291.48,109.168 292.248,108.976 292.912,108.592 C293.576,108.208 294.168,107.704 294.688,107.08 L294.688,107.08 L294.88,108.556 C294.96,108.852 295.152,109 295.456,109 L295.456,109 L296.728,109 L296.728,91.324 L294.592,91.324 L294.592,98.056 C294.176,97.608 293.702,97.258 293.17,97.006 C292.638,96.754 292,96.628 291.256,96.628 C290.44,96.628 289.706,96.79 289.054,97.114 C288.402,97.438 287.852,97.884 287.404,98.452 C286.956,99.02 286.612,99.69 286.372,100.462 C286.132,101.234 286.012,102.068 286.012,102.964 C286.012,103.972 286.12,104.864 286.336,105.64 C286.552,106.416 286.86,107.064 287.26,107.584 C287.66,108.104 288.144,108.498 288.712,108.766 C289.28,109.034 289.912,109.168 290.608,109.168 Z M291.304,107.44 C290.816,107.44 290.38,107.356 289.996,107.188 C289.612,107.02 289.288,106.754 289.024,106.39 C288.76,106.026 288.56,105.562 288.424,104.998 C288.288,104.434 288.22,103.756 288.22,102.964 C288.22,101.468 288.524,100.316 289.132,99.508 C289.74,98.7 290.608,98.296 291.736,98.296 C292.312,98.296 292.832,98.402 293.296,98.614 C293.76,98.826 294.192,99.2 294.592,99.736 L294.592,99.736 L294.592,105.604 C294.152,106.188 293.67,106.64 293.146,106.96 C292.622,107.28 292.008,107.44 291.304,107.44 Z M305.232,109 C305.432,109 305.6,108.944 305.736,108.832 C305.872,108.72 305.964,108.592 306.012,108.448 L306.012,108.448 L307.62,104.296 L315.336,104.296 L316.944,108.448 C317.008,108.608 317.104,108.74 317.232,108.844 C317.36,108.948 317.528,109 317.736,109 L317.736,109 L319.536,109 L312.66,91.804 L310.308,91.804 L303.432,109 L305.232,109 Z M314.688,102.616 L308.268,102.616 L310.968,95.632 C311.144,95.2 311.316,94.66 311.484,94.012 C311.564,94.324 311.648,94.618 311.736,94.894 C311.824,95.17 311.908,95.412 311.988,95.62 L311.988,95.62 L314.688,102.616 Z M325.444,109.168 C325.884,109.168 326.316,109.132 326.74,109.06 C327.164,108.988 327.57,108.874 327.958,108.718 C328.346,108.562 328.708,108.368 329.044,108.136 C329.38,107.904 329.68,107.624 329.944,107.296 L329.944,107.296 L329.344,106.516 C329.248,106.38 329.112,106.312 328.936,106.312 C328.792,106.312 328.646,106.374 328.498,106.498 C328.35,106.622 328.166,106.76 327.946,106.912 C327.726,107.064 327.448,107.202 327.112,107.326 C326.776,107.45 326.348,107.512 325.828,107.512 C325.284,107.512 324.794,107.41 324.358,107.206 C323.922,107.002 323.55,106.706 323.242,106.318 C322.934,105.93 322.696,105.45 322.528,104.878 C322.36,104.306 322.276,103.652 322.276,102.916 C322.276,102.212 322.354,101.576 322.51,101.008 C322.666,100.44 322.898,99.956 323.206,99.556 C323.514,99.156 323.896,98.85 324.352,98.638 C324.808,98.426 325.336,98.32 325.936,98.32 C326.384,98.32 326.762,98.37 327.07,98.47 C327.378,98.57 327.638,98.68 327.85,98.8 C328.062,98.92 328.24,99.03 328.384,99.13 C328.528,99.23 328.66,99.28 328.78,99.28 C328.892,99.28 328.98,99.256 329.044,99.208 C329.108,99.16 329.172,99.092 329.236,99.004 L329.236,99.004 L329.8,98.236 C329.296,97.732 328.718,97.342 328.066,97.066 C327.414,96.79 326.66,96.652 325.804,96.652 C324.884,96.652 324.07,96.808 323.362,97.12 C322.654,97.432 322.058,97.866 321.574,98.422 C321.09,98.978 320.722,99.64 320.47,100.408 C320.218,101.176 320.092,102.012 320.092,102.916 C320.092,103.908 320.228,104.792 320.5,105.568 C320.772,106.344 321.148,106.998 321.628,107.53 C322.108,108.062 322.674,108.468 323.326,108.748 C323.978,109.028 324.684,109.168 325.444,109.168 Z M342.308,94.444 C342.516,94.444 342.712,94.404 342.896,94.324 C343.08,94.244 343.242,94.136 343.382,94 C343.522,93.864 343.634,93.706 343.718,93.526 C343.802,93.346 343.844,93.152 343.844,92.944 C343.844,92.736 343.802,92.538 343.718,92.35 C343.634,92.162 343.522,91.998 343.382,91.858 C343.242,91.718 343.08,91.608 342.896,91.528 C342.712,91.448 342.516,91.408 342.308,91.408 C342.1,91.408 341.906,91.448 341.726,91.528 C341.546,91.608 341.388,91.718 341.252,91.858 C341.116,91.998 341.008,92.162 340.928,92.35 C340.848,92.538 340.808,92.736 340.808,92.944 C340.808,93.152 340.848,93.346 340.928,93.526 C341.008,93.706 341.116,93.864 341.252,94 C341.388,94.136 341.546,94.244 341.726,94.324 C341.906,94.404 342.1,94.444 342.308,94.444 Z M335.768,109.192 C336.32,109.192 336.856,109.094 337.376,108.898 C337.896,108.702 338.34,108.432 338.708,108.088 L338.708,108.088 L338.084,107.068 C337.996,106.932 337.896,106.864 337.784,106.864 C337.72,106.864 337.646,106.894 337.562,106.954 C337.478,107.014 337.376,107.08 337.256,107.152 C337.136,107.224 336.994,107.29 336.83,107.35 C336.666,107.41 336.472,107.44 336.248,107.44 C335.856,107.44 335.536,107.316 335.288,107.068 C335.04,106.82 334.916,106.44 334.916,105.928 L334.916,105.928 L334.916,98.632 L341.18,98.632 L341.18,109 L343.316,109 L343.316,97.084 L334.916,97.084 L334.916,92.896 L333.836,92.896 C333.7,92.896 333.59,92.934 333.506,93.01 C333.422,93.086 333.368,93.184 333.344,93.304 L333.344,93.304 L332.852,97.048 L330.86,97.312 L330.86,98.164 C330.86,98.324 330.904,98.442 330.992,98.518 C331.08,98.594 331.188,98.632 331.316,98.632 L331.316,98.632 L332.78,98.632 L332.78,106.072 C332.78,107.08 333.038,107.852 333.554,108.388 C334.07,108.924 334.808,109.192 335.768,109.192 Z M352.08,109 L357.036,96.844 L355.368,96.844 C355.216,96.844 355.084,96.886 354.972,96.97 C354.86,97.054 354.78,97.16 354.732,97.288 L354.732,97.288 L351.612,105.112 C351.508,105.408 351.42,105.696 351.348,105.976 C351.276,106.256 351.208,106.536 351.144,106.816 C351.08,106.536 351.012,106.256 350.94,105.976 C350.868,105.696 350.784,105.408 350.688,105.112 L350.688,105.112 L347.604,97.288 C347.564,97.168 347.488,97.064 347.376,96.976 C347.264,96.888 347.12,96.844 346.944,96.844 L346.944,96.844 L345.204,96.844 L350.16,109 L352.08,109 Z M359.968,94.54 C360.176,94.54 360.374,94.5 360.562,94.42 C360.75,94.34 360.914,94.23 361.054,94.09 C361.194,93.95 361.306,93.79 361.39,93.61 C361.474,93.43 361.516,93.236 361.516,93.028 C361.516,92.82 361.474,92.622 361.39,92.434 C361.306,92.246 361.194,92.082 361.054,91.942 C360.914,91.802 360.75,91.692 360.562,91.612 C360.374,91.532 360.176,91.492 359.968,91.492 C359.76,91.492 359.566,91.532 359.386,91.612 C359.206,91.692 359.048,91.802 358.912,91.942 C358.776,92.082 358.668,92.246 358.588,92.434 C358.508,92.622 358.468,92.82 358.468,93.028 C358.468,93.236 358.508,93.43 358.588,93.61 C358.668,93.79 358.776,93.95 358.912,94.09 C359.048,94.23 359.206,94.34 359.386,94.42 C359.566,94.5 359.76,94.54 359.968,94.54 Z M361.06,109 L361.06,96.844 L358.924,96.844 L358.924,109 L361.06,109 Z M374.636,94.444 C374.844,94.444 375.04,94.404 375.224,94.324 C375.408,94.244 375.57,94.136 375.71,94 C375.85,93.864 375.962,93.706 376.046,93.526 C376.13,93.346 376.172,93.152 376.172,92.944 C376.172,92.736 376.13,92.538 376.046,92.35 C375.962,92.162 375.85,91.998 375.71,91.858 C375.57,91.718 375.408,91.608 375.224,91.528 C375.04,91.448 374.844,91.408 374.636,91.408 C374.428,91.408 374.234,91.448 374.054,91.528 C373.874,91.608 373.716,91.718 373.58,91.858 C373.444,91.998 373.336,92.162 373.256,92.35 C373.176,92.538 373.136,92.736 373.136,92.944 C373.136,93.152 373.176,93.346 373.256,93.526 C373.336,93.706 373.444,93.864 373.58,94 C373.716,94.136 373.874,94.244 374.054,94.324 C374.234,94.404 374.428,94.444 374.636,94.444 Z M368.096,109.192 C368.648,109.192 369.184,109.094 369.704,108.898 C370.224,108.702 370.668,108.432 371.036,108.088 L371.036,108.088 L370.412,107.068 C370.324,106.932 370.224,106.864 370.112,106.864 C370.048,106.864 369.974,106.894 369.89,106.954 C369.806,107.014 369.704,107.08 369.584,107.152 C369.464,107.224 369.322,107.29 369.158,107.35 C368.994,107.41 368.8,107.44 368.576,107.44 C368.184,107.44 367.864,107.316 367.616,107.068 C367.368,106.82 367.244,106.44 367.244,105.928 L367.244,105.928 L367.244,98.632 L373.508,98.632 L373.508,109 L375.644,109 L375.644,97.084 L367.244,97.084 L367.244,92.896 L366.164,92.896 C366.028,92.896 365.918,92.934 365.834,93.01 C365.75,93.086 365.696,93.184 365.672,93.304 L365.672,93.304 L365.18,97.048 L363.188,97.312 L363.188,98.164 C363.188,98.324 363.232,98.442 363.32,98.518 C363.408,98.594 363.516,98.632 363.644,98.632 L363.644,98.632 L365.108,98.632 L365.108,106.072 C365.108,107.08 365.366,107.852 365.882,108.388 C366.398,108.924 367.136,109.192 368.096,109.192 Z M384.048,109.168 C384.488,109.168 384.932,109.13 385.38,109.054 C385.828,108.978 386.262,108.864 386.682,108.712 C387.102,108.56 387.496,108.366 387.864,108.13 C388.232,107.894 388.548,107.616 388.812,107.296 L388.812,107.296 L388.212,106.516 C388.116,106.38 387.98,106.312 387.804,106.312 C387.668,106.312 387.506,106.374 387.318,106.498 C387.13,106.622 386.896,106.756 386.616,106.9 C386.336,107.044 386.002,107.178 385.614,107.302 C385.226,107.426 384.764,107.488 384.228,107.488 C383.652,107.488 383.132,107.394 382.668,107.206 C382.204,107.018 381.804,106.734 381.468,106.354 C381.132,105.974 380.87,105.5 380.682,104.932 C380.494,104.364 380.388,103.696 380.364,102.928 L380.364,102.928 L388.488,102.928 C388.688,102.928 388.824,102.872 388.896,102.76 C388.968,102.648 389.004,102.424 389.004,102.088 C389.004,101.224 388.876,100.454 388.62,99.778 C388.364,99.102 388.01,98.534 387.558,98.074 C387.106,97.614 386.57,97.262 385.95,97.018 C385.33,96.774 384.656,96.652 383.928,96.652 C383.048,96.652 382.256,96.806 381.552,97.114 C380.848,97.422 380.252,97.846 379.764,98.386 C379.276,98.926 378.902,99.564 378.642,100.3 C378.382,101.036 378.252,101.828 378.252,102.676 C378.252,103.724 378.396,104.652 378.684,105.46 C378.972,106.268 379.374,106.946 379.89,107.494 C380.406,108.042 381.018,108.458 381.726,108.742 C382.434,109.026 383.208,109.168 384.048,109.168 Z M387.084,101.596 L380.436,101.596 C380.58,100.54 380.95,99.714 381.546,99.118 C382.142,98.522 382.952,98.224 383.976,98.224 C384.464,98.224 384.9,98.306 385.284,98.47 C385.668,98.634 385.994,98.866 386.262,99.166 C386.53,99.466 386.734,99.822 386.874,100.234 C387.014,100.646 387.084,101.1 387.084,101.596 L387.084,101.596 Z M394.588,109.192 C395.332,109.192 395.988,109.092 396.556,108.892 C397.124,108.692 397.604,108.418 397.996,108.07 C398.388,107.722 398.684,107.31 398.884,106.834 C399.084,106.358 399.184,105.84 399.184,105.28 C399.184,104.792 399.094,104.374 398.914,104.026 C398.734,103.678 398.496,103.384 398.2,103.144 C397.904,102.904 397.568,102.704 397.192,102.544 C396.816,102.384 396.43,102.238 396.034,102.106 C395.638,101.974 395.252,101.85 394.876,101.734 C394.5,101.618 394.164,101.484 393.868,101.332 C393.572,101.18 393.334,101 393.154,100.792 C392.974,100.584 392.884,100.324 392.884,100.012 C392.884,99.764 392.938,99.534 393.046,99.322 C393.154,99.11 393.31,98.924 393.514,98.764 C393.718,98.604 393.964,98.478 394.252,98.386 C394.54,98.294 394.864,98.248 395.224,98.248 C395.64,98.248 396,98.294 396.304,98.386 C396.608,98.478 396.87,98.578 397.09,98.686 C397.31,98.794 397.496,98.892 397.648,98.98 C397.8,99.068 397.936,99.112 398.056,99.112 C398.256,99.112 398.404,99.024 398.5,98.848 L398.5,98.848 L398.98,98.068 C398.516,97.628 397.966,97.282 397.33,97.03 C396.694,96.778 395.976,96.652 395.176,96.652 C394.488,96.652 393.876,96.748 393.34,96.94 C392.804,97.132 392.352,97.39 391.984,97.714 C391.616,98.038 391.336,98.414 391.144,98.842 C390.952,99.27 390.856,99.716 390.856,100.18 C390.856,100.7 390.946,101.142 391.126,101.506 C391.306,101.87 391.544,102.176 391.84,102.424 C392.136,102.672 392.474,102.878 392.854,103.042 C393.234,103.206 393.622,103.352 394.018,103.48 C394.414,103.608 394.802,103.73 395.182,103.846 C395.562,103.962 395.9,104.098 396.196,104.254 C396.492,104.41 396.73,104.598 396.91,104.818 C397.09,105.038 397.18,105.316 397.18,105.652 C397.18,105.924 397.13,106.18 397.03,106.42 C396.93,106.66 396.776,106.872 396.568,107.056 C396.36,107.24 396.1,107.386 395.788,107.494 C395.476,107.602 395.112,107.656 394.696,107.656 C394.208,107.656 393.8,107.6 393.472,107.488 C393.144,107.376 392.866,107.252 392.638,107.116 C392.41,106.98 392.216,106.856 392.056,106.744 C391.896,106.632 391.744,106.576 391.6,106.576 C391.464,106.576 391.352,106.604 391.264,106.66 C391.176,106.716 391.1,106.796 391.036,106.9 L391.036,106.9 L390.532,107.716 C391.012,108.148 391.596,108.502 392.284,108.778 C392.972,109.054 393.74,109.192 394.588,109.192 Z" id="FrameworkofRolesandActvites" fill-opacity="0.87" fill="#000000" opacity="0.600000024"></path>
        </g>
    </g>
</svg>