<?xml version="1.0" encoding="UTF-8"?>
<svg width="24px" height="24px" viewBox="0 0 24 24" version="1.1" xmlns="http://www.w3.org/2000/svg" xmlns:xlink="http://www.w3.org/1999/xlink">
    <title>Icons/stages/sent_for_review</title>
    <g id="Icons/stages/sent_for_review" stroke="none" stroke-width="1" fill="none" fill-rule="evenodd">
        <path d="M12,2 C6.48577883,2 2,6.48577883 2,12 C2,17.5142212 6.48577883,22 12,22 C17.5142212,22 22,17.5142212 22,12 C22,6.48577883 17.5142212,2 12,2 Z" id="Path" fill="#2E3094"></path>
        <path d="M12,6.75850689 C12.3796958,6.75850689 12.693491,7.04066077 12.7431534,7.40673634 L12.75,7.50850689 L12.75,11.689 L16.1551497,15.0944895 C16.4214163,15.3607561 16.4456223,15.7774198 16.2277679,16.0710313 L16.1551497,16.1551497 C15.8888832,16.4214163 15.4722195,16.4456223 15.178608,16.2277679 L15.0944895,16.1551497 L11.25,12.3106602 L11.25,7.50850689 C11.25,7.09429333 11.5857864,6.75850689 12,6.75850689 Z" id="Path-22" fill="#FFFFFF"></path>
    </g>
</svg>