<svg xmlns="http://www.w3.org/2000/svg" viewBox="0 0 3906 126" width="3906" height="126"><g fill="#2E3094" fill-rule="evenodd"><path d="M62.451 54.576c-2.283 0-4.473.887-6.087 2.467-1.614 1.579-2.521 3.723-2.521 5.957s.907 4.377 2.521 5.956c1.614 1.58 3.804 2.468 6.087 2.468 2.282 0 4.472-.888 6.086-2.468 1.614-1.579 2.521-3.722 2.521-5.956 0-2.234-.907-4.378-2.521-5.957-1.614-1.58-3.804-2.467-6.086-2.467z"/><path d="M61.516.733c4.367 0 7.909 3.539 7.909 7.906 0 4.031-3.018 7.359-6.917 7.844v32.681c6.111 0 11.297 3.965 13.13 9.462l32.018-10.22c-.433-.976-.674-2.057-.674-3.199 0-4.365 3.542-7.904 7.906-7.904 4.368 0 7.911 3.539 7.911 7.904 0 4.369-3.543 7.909-7.911 7.909-2.868 0-5.38-1.528-6.767-3.818L75.916 59.576c.28 1.095.428 2.241.428 3.424 0 2.371-.598 4.606-1.651 6.555l29.529 15.954c1.396-2.239 3.882-3.729 6.714-3.729 4.368 0 7.909 3.541 7.909 7.906 0 4.367-3.541 7.908-7.909 7.908-4.364 0-7.906-3.541-7.906-7.908 0-1.181.258-2.303.722-3.307l-29.558-15.97c-2.455 3.864-6.772 6.427-11.686 6.427v32.617c4.365 0 7.904 3.541 7.904 7.908 0 4.367-3.539 7.906-7.904 7.906-4.367 0-7.909-3.539-7.909-7.906 0-4.034 3.018-7.359 6.917-7.844V76.803c-4.57-.324-8.529-2.868-10.803-6.557L21.259 86.374c.466 1.009.722 2.131.722 3.312 0 4.367-3.539 7.908-7.907 7.908-4.364 0-7.906-3.541-7.906-7.908 0-4.365 3.542-7.906 7.906-7.906 2.833 0 5.317 1.488 6.712 3.724l29.439-16.119c-.993-1.91-1.556-4.082-1.556-6.385 0-1.322.185-2.605.532-3.817L18.302 47.51c-1.247 2.727-4 4.616-7.193 4.616-4.367 0-7.908-3.539-7.908-7.906 0-4.367 3.541-7.906 7.908-7.906 4.367 0 7.909 3.539 7.909 7.906 0 .824-.128 1.621-.36 2.367l30.85 11.655c1.83-5.005 6.471-8.655 12.008-9.045v-32.65c-4.367 0-7.906-3.541-7.906-7.908 0-4.367 3.539-7.906 7.906-7.906z" fill-opacity=".5"/></g><g fill="#2E3094" fill-rule="evenodd"><path d="M188.451 54.576c-2.283 0-4.473.887-6.087 2.467-1.614 1.579-2.521 3.723-2.521 5.957s.907 4.377 2.521 5.956c1.614 1.58 3.804 2.468 6.087 2.468 2.282 0 4.472-.888 6.086-2.468 1.614-1.579 2.521-3.722 2.521-5.956 0-2.234-.907-4.378-2.521-5.957-1.614-1.58-3.804-2.467-6.086-2.467z"/><path d="M187.525 1.105c4.341 0 7.861 3.518 7.861 7.859 0 4.007-3 7.314-6.875 7.797v32.485c6.074 0 11.23 3.942 13.051 9.406l31.827-10.159c-.43-.97-.67-2.045-.67-3.18 0-4.338 3.52-7.856 7.859-7.856 4.341 0 7.864 3.518 7.864 7.856 0 4.344-3.523 7.862-7.864 7.862-2.851 0-5.348-1.519-6.726-3.795l-32.013 10.216c.278 1.089.425 2.228.425 3.404 0 2.357-.594 4.578-1.641 6.516l29.353 15.858c1.387-2.225 3.858-3.706 6.674-3.706 4.341 0 7.861 3.52 7.861 7.859 0 4.341-3.52 7.861-7.861 7.861-4.339 0-7.859-3.52-7.859-7.861 0-1.175.257-2.289.718-3.288l-29.382-15.874c-2.441 3.841-6.731 6.389-11.616 6.389v32.421c4.338 0 7.856 3.52 7.856 7.861 0 4.341-3.518 7.859-7.856 7.859-4.341 0-7.862-3.518-7.862-7.859 0-4.009 3-7.314 6.876-7.797V76.721c-4.543-.323-8.478-2.851-10.738-6.518l-29.279 16.032c.463 1.003.718 2.117.718 3.292 0 4.341-3.518 7.861-7.859 7.861-4.339 0-7.859-3.52-7.859-7.861 0-4.339 3.52-7.859 7.859-7.859 2.816 0 5.285 1.479 6.672 3.702l29.263-16.023c-.988-1.898-1.547-4.058-1.547-6.347 0-1.315.184-2.59.529-3.795L144.57 47.602c-1.24 2.711-3.977 4.589-7.15 4.589-4.341 0-7.862-3.518-7.862-7.859s3.521-7.859 7.862-7.859 7.861 3.518 7.861 7.859c0 .819-.128 1.611-.358 2.353l30.666 11.586c1.819-4.976 6.432-8.603 11.936-8.992V16.825c-4.341 0-7.859-3.52-7.859-7.861 0-4.341 3.518-7.859 7.859-7.859z" fill-opacity=".50532"/></g><g fill="#2E3094" fill-rule="evenodd"><path d="M314.451 54.576c-2.283 0-4.473.887-6.087 2.467-1.614 1.579-2.521 3.723-2.521 5.957s.907 4.377 2.521 5.956c1.614 1.58 3.804 2.468 6.087 2.468 2.282 0 4.472-.888 6.086-2.468 1.614-1.579 2.521-3.722 2.521-5.956 0-2.234-.907-4.378-2.521-5.957-1.614-1.58-3.804-2.467-6.086-2.467z"/><path d="M313.551 2.205c4.264 0 7.722 3.456 7.722 7.719 0 3.937-2.947 7.185-6.754 7.659v31.908c5.967 0 11.031 3.871 12.82 9.239l31.261-9.979c-.423-.952-.658-2.009-.658-3.123 0-4.262 3.458-7.717 7.719-7.717 4.264 0 7.724 3.455 7.724 7.717 0 4.266-3.46 7.721-7.724 7.721-2.8 0-5.253-1.491-6.607-3.727L327.61 59.657c.274 1.069.419 2.188.419 3.343 0 2.315-.585 4.497-1.613 6.4l28.832 15.577c1.362-2.186 3.789-3.641 6.555-3.641 4.264 0 7.721 3.457 7.721 7.719 0 4.264-3.457 7.721-7.721 7.721-4.262 0-7.719-3.457-7.719-7.721 0-1.153.252-2.248.704-3.229l-28.859-15.592c-2.397 3.773-6.611 6.275-11.41 6.275v31.845c4.262 0 7.717 3.458 7.717 7.722 0 4.263-3.455 7.719-7.717 7.719-4.264 0-7.721-3.456-7.721-7.719 0-3.939 2.947-7.185 6.753-7.659v-31.94c-4.462-.317-8.327-2.8-10.547-6.402l-28.758 15.747c.455.985.705 2.08.705 3.233 0 4.264-3.456 7.721-7.72 7.721-4.261 0-7.719-3.457-7.719-7.721 0-4.262 3.458-7.719 7.719-7.719 2.766 0 5.191 1.453 6.554 3.636l28.743-15.738c-.97-1.865-1.52-3.986-1.52-6.234 0-1.291.181-2.544.519-3.727l-30.168-11.397c-1.217 2.662-3.905 4.508-7.023 4.508-4.263 0-7.721-3.456-7.721-7.72 0-4.264 3.458-7.719 7.721-7.719 4.264 0 7.722 3.455 7.722 7.719 0 .804-.125 1.583-.351 2.311l30.12 11.38c1.787-4.887 6.318-8.45 11.724-8.832V17.646c-4.263 0-7.719-3.458-7.719-7.722 0-4.263 3.456-7.719 7.719-7.719z" fill-opacity=".524965"/></g><g fill="#2E3094" fill-rule="evenodd"><path d="M440.451 54.576c-2.283 0-4.473.887-6.087 2.467-1.614 1.579-2.521 3.723-2.521 5.957s.907 4.377 2.521 5.956c1.614 1.58 3.804 2.468 6.087 2.468 2.282 0 4.472-.888 6.086-2.468 1.614-1.579 2.521-3.722 2.521-5.956 0-2.234-.907-4.378-2.521-5.957-1.614-1.58-3.804-2.467-6.086-2.467z"/><path d="M439.594 3.985c4.139 0 7.495 3.355 7.495 7.494 0 3.821-2.86 6.974-6.556 7.434v30.973c5.792 0 10.708 3.758 12.444 8.969l30.346-9.686c-.41-.925-.638-1.951-.638-3.032 0-4.137 3.356-7.492 7.493-7.492 4.139 0 7.497 3.355 7.497 7.492 0 4.141-3.358 7.495-7.497 7.495-2.718 0-5.1-1.448-6.414-3.618l-30.523 9.741c.266 1.037.406 2.123.406 3.245 0 2.247-.567 4.365-1.565 6.213l27.987 15.12c1.322-2.122 3.679-3.534 6.363-3.534 4.139 0 7.496 3.356 7.496 7.493 0 4.139-3.357 7.495-7.496 7.495-4.137 0-7.493-3.356-7.493-7.495 0-1.12.245-2.183.684-3.135l-28.014-15.135c-2.327 3.662-6.418 6.092-11.076 6.092v30.912c4.137 0 7.492 3.356 7.492 7.495s-3.355 7.494-7.492 7.494c-4.139 0-7.495-3.355-7.495-7.494 0-3.823 2.861-6.974 6.556-7.434V76.082c-4.332-.307-8.083-2.718-10.239-6.214l-27.916 15.285c.442.956.685 2.019.685 3.139 0 4.139-3.355 7.495-7.494 7.495-4.136 0-7.493-3.356-7.493-7.495 0-4.137 3.357-7.493 7.493-7.493 2.685 0 5.039 1.41 6.362 3.53l27.901-15.278c-.942-1.81-1.475-3.869-1.475-6.051 0-1.253.175-2.469.504-3.618l-29.285-11.063c-1.182 2.584-3.791 4.375-6.817 4.375-4.139 0-7.495-3.354-7.495-7.493s3.356-7.493 7.495-7.493 7.495 3.354 7.495 7.493c0 .781-.121 1.536-.341 2.243l29.239 11.047c1.734-4.744 6.133-8.203 11.381-8.573V18.974c-4.139 0-7.493-3.356-7.493-7.495s3.354-7.494 7.493-7.494z" fill-opacity=".566973"/></g><g fill="#2E3094" fill-rule="evenodd"><path d="M566.451 54.576c-2.283 0-4.473.887-6.087 2.467-1.614 1.579-2.521 3.723-2.521 5.957s.907 4.377 2.521 5.956c1.614 1.58 3.804 2.468 6.087 2.468 2.282 0 4.472-.888 6.086-2.468 1.614-1.579 2.521-3.722 2.521-5.956 0-2.234-.907-4.378-2.521-5.957-1.614-1.58-3.804-2.467-6.086-2.467z"/><path d="M565.651 6.368c3.971 0 7.192 3.219 7.192 7.191 0 3.666-2.745 6.692-6.291 7.134v29.723c5.558 0 10.275 3.606 11.942 8.606l29.12-9.295c-.393-.888-.612-1.871-.612-2.91 0-3.969 3.22-7.188 7.19-7.188 3.972 0 7.195 3.219 7.195 7.188 0 3.974-3.223 7.193-7.195 7.193-2.608 0-4.893-1.389-6.154-3.472l-29.291 9.348c.255.996.389 2.038.389 3.114 0 2.157-.544 4.189-1.502 5.962l26.858 14.51c1.269-2.036 3.53-3.392 6.106-3.392 3.972 0 7.193 3.221 7.193 7.191 0 3.972-3.221 7.193-7.193 7.193-3.97 0-7.191-3.221-7.191-7.193 0-1.074.235-2.095.657-3.008l-26.883-14.524c-2.233 3.514-6.159 5.845-10.629 5.845v29.665c3.97 0 7.189 3.22 7.189 7.192s-3.219 7.191-7.189 7.191c-3.972 0-7.192-3.219-7.192-7.191 0-3.668 2.744-6.692 6.291-7.134V75.554c-4.157-.295-7.757-2.608-9.826-5.964l-26.788 14.669c.423.917.656 1.938.656 3.012 0 3.972-3.219 7.193-7.191 7.193-3.969 0-7.19-3.221-7.19-7.193 0-3.97 3.221-7.191 7.19-7.191 2.577 0 4.836 1.354 6.105 3.388l26.775-14.661c-.904-1.737-1.416-3.713-1.416-5.807 0-1.203.169-2.369.484-3.472l-28.102-10.616c-1.135 2.48-3.639 4.199-6.542 4.199-3.972 0-7.193-3.219-7.193-7.191s3.221-7.191 7.193-7.191c3.972 0 7.192 3.219 7.192 7.191 0 .749-.116 1.474-.327 2.152l28.058 10.601c1.665-4.552 5.886-7.872 10.922-8.227V20.751c-3.972 0-7.191-3.22-7.191-7.192s3.219-7.191 7.191-7.191z" fill-opacity=".639027"/></g><g fill="#2E3094" fill-rule="evenodd"><path d="M692.451 54.576c-2.283 0-4.473.887-6.087 2.467-1.614 1.579-2.521 3.723-2.521 5.957s.907 4.377 2.521 5.956c1.614 1.58 3.804 2.468 6.087 2.468 2.282 0 4.472-.888 6.086-2.468 1.614-1.579 2.521-3.722 2.521-5.956 0-2.234-.907-4.378-2.521-5.957-1.614-1.58-3.804-2.467-6.086-2.467z"/><path d="M691.719 9.249c3.77 0 6.827 3.055 6.827 6.825 0 3.48-2.605 6.352-5.971 6.771v28.211c5.275 0 9.752 3.423 11.334 8.168l27.639-8.822c-.373-.842-.581-1.776-.581-2.761 0-3.768 3.057-6.823 6.825-6.823 3.77 0 6.829 3.055 6.829 6.823 0 3.771-3.059 6.826-6.829 6.826-2.476 0-4.645-1.318-5.842-3.295l-27.801 8.872c.242.945.37 1.934.37 2.956 0 2.047-.516 3.976-1.425 5.659l25.491 13.771c1.204-1.932 3.35-3.219 5.795-3.219 3.77 0 6.827 3.057 6.827 6.825 0 3.77-3.057 6.827-6.827 6.827-3.768 0-6.825-3.057-6.825-6.827 0-1.019.223-1.988.624-2.855l-25.516-13.785c-2.12 3.335-5.846 5.548-10.088 5.548V103.1c3.768 0 6.823 3.057 6.823 6.826 0 3.77-3.055 6.825-6.823 6.825-3.77 0-6.827-3.055-6.827-6.825 0-3.482 2.605-6.352 5.971-6.771V74.916c-3.945-.281-7.362-2.476-9.325-5.661l-25.426 13.922c.402.871.623 1.84.623 2.859 0 3.77-3.055 6.827-6.825 6.827-3.768 0-6.825-3.057-6.825-6.827 0-3.768 3.057-6.825 6.825-6.825 2.445 0 4.589 1.285 5.794 3.216l25.413-13.915c-.858-1.649-1.344-3.524-1.344-5.512 0-1.142.16-2.249.459-3.295l-26.672-10.077c-1.077 2.354-3.454 3.986-6.21 3.986-3.77 0-6.827-3.056-6.827-6.825 0-3.77 3.057-6.825 6.827-6.825s6.827 3.055 6.827 6.825c0 .711-.11 1.399-.311 2.043l26.631 10.061c1.58-4.321 5.586-7.471 10.366-7.809V22.9c-3.77 0-6.825-3.057-6.825-6.826 0-3.77 3.055-6.825 6.825-6.825z" fill-opacity=".728626"/></g><g fill="#2E3094" fill-rule="evenodd"><path d="M818.451 54.576c-2.283 0-4.473.887-6.087 2.467-1.614 1.579-2.521 3.723-2.521 5.957s.907 4.377 2.521 5.956c1.614 1.58 3.804 2.468 6.087 2.468 2.282 0 4.472-.888 6.086-2.468 1.614-1.579 2.521-3.722 2.521-5.956 0-2.234-.907-4.378-2.521-5.957-1.614-1.58-3.804-2.467-6.086-2.467z"/><path d="M817.797 12.502c3.541 0 6.413 2.87 6.413 6.411 0 3.27-2.447 5.968-5.609 6.362v26.504c4.956 0 9.162 3.216 10.648 7.674l25.966-8.288c-.351-.792-.546-1.669-.546-2.595 0-3.54 2.872-6.41 6.412-6.41 3.542 0 6.416 2.87 6.416 6.41 0 3.544-2.874 6.414-6.416 6.414-2.326 0-4.363-1.239-5.488-3.096l-26.118 8.335c.227.888.347 1.817.347 2.777 0 1.923-.485 3.735-1.339 5.316l23.948 12.939c1.132-1.816 3.148-3.025 5.445-3.025 3.542 0 6.414 2.872 6.414 6.412 0 3.542-2.872 6.414-6.414 6.414-3.54 0-6.412-2.872-6.412-6.414 0-.958.21-1.867.586-2.682l-23.972-12.951c-1.991 3.133-5.492 5.212-9.477 5.212v26.452c3.54 0 6.41 2.872 6.41 6.414 0 3.541-2.87 6.411-6.41 6.411-3.542 0-6.414-2.87-6.414-6.411 0-3.272 2.448-5.968 5.61-6.362V74.194c-3.707-.263-6.917-2.325-8.761-5.317l-23.888 13.079c.378.819.586 1.728.586 2.686 0 3.542-2.871 6.414-6.412 6.414-3.54 0-6.412-2.872-6.412-6.414 0-3.54 2.872-6.412 6.412-6.412 2.297 0 4.311 1.207 5.443 3.021l23.875-13.073c-.806-1.549-1.262-3.31-1.262-5.178 0-1.073.15-2.113.431-3.096l-25.058-9.466c-1.012 2.211-3.245 3.744-5.834 3.744-3.542 0-6.414-2.871-6.414-6.412 0-3.542 2.872-6.412 6.414-6.412s6.414 2.87 6.414 6.412c0 .668-.104 1.314-.292 1.919l25.019 9.452c1.484-4.059 5.248-7.019 9.739-7.335V25.327c-3.542 0-6.412-2.872-6.412-6.414 0-3.541 2.87-6.411 6.412-6.411z" fill-opacity=".806797"/></g><g fill="#2E3094" fill-rule="evenodd"><path d="M944.451 54.576c-2.283 0-4.473.887-6.087 2.467-1.614 1.579-2.521 3.723-2.521 5.957s.907 4.377 2.521 5.956c1.614 1.58 3.804 2.468 6.087 2.468 2.282 0 4.472-.888 6.086-2.468 1.614-1.579 2.521-3.722 2.521-5.956 0-2.234-.907-4.378-2.521-5.957-1.614-1.58-3.804-2.467-6.086-2.467z"/><path d="M943.88 15.984c3.297 0 5.971 2.673 5.971 5.97 0 3.044-2.279 5.556-5.223 5.923v24.676c4.615 0 8.531 2.994 9.914 7.145l24.176-7.717c-.327-.737-.509-1.554-.509-2.416 0-3.295 2.674-5.968 5.97-5.968 3.297 0 5.973 2.673 5.973 5.968 0 3.299-2.676 5.972-5.973 5.972-2.166 0-4.063-1.154-5.11-2.883l-24.317 7.76c.212.827.324 1.692.324 2.586 0 1.79-.452 3.477-1.247 4.949l22.296 12.046c1.054-1.69 2.931-2.815 5.07-2.815 3.297 0 5.971 2.674 5.971 5.97 0 3.297-2.674 5.971-5.971 5.971-3.296 0-5.97-2.674-5.97-5.971 0-.892.195-1.739.545-2.498l-22.318-12.057c-1.854 2.917-5.113 4.852-8.824 4.852v24.628c3.296 0 5.968 2.673 5.968 5.971 0 3.297-2.672 5.97-5.968 5.97-3.297 0-5.971-2.673-5.971-5.97 0-3.046 2.279-5.556 5.223-5.923V73.422c-3.451-.245-6.44-2.165-8.157-4.951l-22.24 12.178c.352.762.545 1.609.545 2.501 0 3.297-2.672 5.971-5.97 5.971-3.295 0-5.969-2.674-5.969-5.971 0-3.296 2.674-5.97 5.969-5.97 2.139 0 4.015 1.123 5.068 2.812l22.228-12.171c-.75-1.442-1.175-3.082-1.175-4.821 0-.999.14-1.967.402-2.882l-23.33-8.814c-.942 2.059-3.021 3.486-5.431 3.486-3.298 0-5.972-2.672-5.972-5.97 0-3.297 2.674-5.97 5.972-5.97 3.297 0 5.971 2.673 5.971 5.97 0 .622-.097 1.224-.272 1.787l23.294 8.801c1.382-3.78 4.886-6.535 9.067-6.83V27.925c-3.298 0-5.97-2.673-5.97-5.971 0-3.297 2.672-5.97 5.97-5.97z" fill-opacity=".864984"/></g><g fill="#2E3094" fill-rule="evenodd"><path d="M1070.451 54.576c-2.283 0-4.473.887-6.087 2.467-1.614 1.579-2.521 3.723-2.521 5.957s.907 4.377 2.521 5.956c1.614 1.58 3.804 2.468 6.087 2.468 2.282 0 4.472-.888 6.086-2.468 1.614-1.579 2.521-3.722 2.521-5.956 0-2.234-.907-4.378-2.521-5.957-1.614-1.58-3.804-2.467-6.086-2.467z"/><path d="M1069.965 19.545c3.047 0 5.519 2.47 5.519 5.518 0 2.813-2.107 5.135-4.828 5.474v22.807c4.265 0 7.885 2.767 9.163 6.604l22.345-7.133c-.302-.681-.47-1.436-.47-2.232 0-3.046 2.471-5.516 5.518-5.516 3.047 0 5.52 2.47 5.52 5.516 0 3.049-2.473 5.519-5.52 5.519-2.002 0-3.755-1.066-4.723-2.664l-22.475 7.172c.195.764.299 1.564.299 2.39 0 1.655-.418 3.214-1.153 4.575l20.608 11.133c.974-1.562 2.709-2.602 4.686-2.602 3.047 0 5.519 2.471 5.519 5.518 0 3.047-2.472 5.519-5.519 5.519s-5.518-2.472-5.518-5.519c0-.825.18-1.608.504-2.309l-20.628-11.144c-1.714 2.696-4.726 4.485-8.156 4.485v22.762c3.047 0 5.516 2.472 5.516 5.519 0 3.048-2.469 5.518-5.516 5.518s-5.519-2.47-5.519-5.518c0-2.815 2.107-5.135 4.828-5.474v-22.83c-3.19-.226-5.952-2.001-7.539-4.576l-20.556 11.255c.325.704.504 1.487.504 2.312 0 3.047-2.47 5.519-5.518 5.519-3.046 0-5.517-2.472-5.517-5.519s2.471-5.518 5.517-5.518c1.977 0 3.71 1.038 4.684 2.599l20.545-11.249c-.693-1.333-1.086-2.849-1.086-4.456 0-.923.129-1.818.371-2.664l-21.563-8.146c-.871 1.903-2.792 3.222-5.02 3.222-3.048 0-5.519-2.47-5.519-5.518 0-3.048 2.471-5.518 5.519-5.518s5.519 2.47 5.519 5.518c0 .575-.089 1.131-.251 1.652l21.529 8.134c1.278-3.493 4.516-6.04 8.381-6.313V30.582c-3.048 0-5.518-2.472-5.518-5.519 0-3.048 2.47-5.518 5.518-5.518z" fill-opacity=".907216"/></g><g fill="#2E3094" fill-rule="evenodd"><path d="M1196.451 54.576c-2.283 0-4.473.887-6.087 2.467-1.614 1.579-2.521 3.723-2.521 5.957s.907 4.377 2.521 5.956c1.614 1.58 3.804 2.468 6.087 2.468 2.282 0 4.472-.888 6.086-2.468 1.614-1.579 2.521-3.722 2.521-5.956 0-2.234-.907-4.378-2.521-5.957-1.614-1.58-3.804-2.467-6.086-2.467z"/><path d="M1196.048 23.028c2.803 0 5.076 2.272 5.076 5.075 0 2.588-1.937 4.724-4.44 5.036v20.979c3.923 0 7.252 2.545 8.429 6.074l20.553-6.56c-.278-.627-.432-1.321-.432-2.054 0-2.802 2.273-5.074 5.075-5.074 2.804 0 5.078 2.272 5.078 5.074 0 2.805-2.274 5.077-5.078 5.077-1.841 0-3.454-.981-4.344-2.451l-20.674 6.598c.18.703.275 1.438.275 2.198 0 1.522-.384 2.956-1.06 4.208l18.956 10.241c.896-1.437 2.492-2.393 4.31-2.393 2.804 0 5.077 2.273 5.077 5.075 0 2.803-2.273 5.077-5.077 5.077-2.802 0-5.075-2.274-5.075-5.077 0-.758.166-1.478.463-2.123l-18.974-10.252c-1.576 2.481-4.347 4.126-7.502 4.126V92.82c2.802 0 5.074 2.273 5.074 5.077 0 2.803-2.272 5.075-5.074 5.075-2.803 0-5.077-2.272-5.077-5.075 0-2.59 1.938-4.724 4.441-5.036v-21c-2.934-.208-5.475-1.841-6.935-4.209l-18.908 10.353c.299.648.463 1.368.463 2.126 0 2.803-2.272 5.077-5.075 5.077-2.802 0-5.076-2.274-5.076-5.077 0-2.802 2.274-5.075 5.076-5.075 1.818 0 3.413.955 4.308 2.39l18.899-10.347c-.638-1.226-1-2.621-1-4.099 0-.849.119-1.672.342-2.451l-19.835-7.493c-.801 1.751-2.568 2.964-4.618 2.964-2.803 0-5.076-2.272-5.076-5.076 0-2.803 2.273-5.075 5.076-5.075 2.804 0 5.077 2.272 5.077 5.075 0 .529-.082 1.041-.231 1.52l19.804 7.482c1.175-3.213 4.154-5.556 7.709-5.807V33.18c-2.804 0-5.076-2.273-5.076-5.077 0-2.803 2.272-5.075 5.076-5.075z" fill-opacity=".937984"/></g><g fill="#2E3094" fill-rule="evenodd"><path d="M1322.451 54.576c-2.283 0-4.473.887-6.087 2.467-1.614 1.579-2.521 3.723-2.521 5.957s.907 4.377 2.521 5.956c1.614 1.58 3.804 2.468 6.087 2.468 2.282 0 4.472-.888 6.086-2.468 1.614-1.579 2.521-3.722 2.521-5.956 0-2.234-.907-4.378-2.521-5.957-1.614-1.58-3.804-2.467-6.086-2.467z"/><path d="M1322.125 26.281c2.575 0 4.664 2.087 4.664 4.662 0 2.378-1.78 4.34-4.079 4.626v19.272c3.603 0 6.662 2.338 7.742 5.58l18.881-6.027c-.255-.575-.397-1.213-.397-1.886 0-2.574 2.089-4.661 4.663-4.661 2.575 0 4.665 2.087 4.665 4.661 0 2.576-2.09 4.663-4.665 4.663-1.692 0-3.173-.901-3.991-2.251l-18.992 6.061c.166.645.253 1.321.253 2.019 0 1.398-.353 2.716-.974 3.866l17.414 9.407c.823-1.32 2.289-2.199 3.959-2.199 2.575 0 4.664 2.089 4.664 4.663 0 2.575-2.089 4.663-4.664 4.663-2.574 0-4.662-2.088-4.662-4.663 0-.697.152-1.358.426-1.951l-17.431-9.417c-1.448 2.279-3.993 3.79-6.891 3.79v19.234c2.574 0 4.661 2.089 4.661 4.664 0 2.575-2.087 4.662-4.661 4.662-2.576 0-4.664-2.087-4.664-4.662 0-2.379 1.78-4.34 4.079-4.626V71.14c-2.695-.192-5.029-1.691-6.37-3.867l-17.37 9.511c.275.595.426 1.256.426 1.953 0 2.575-2.087 4.663-4.662 4.663-2.574 0-4.663-2.088-4.663-4.663 0-2.574 2.089-4.663 4.663-4.663 1.67 0 3.135.878 3.958 2.197l17.36-9.506c-.586-1.126-.918-2.407-.918-3.765 0-.78.109-1.536.314-2.251l-18.221-6.884c-.736 1.608-2.359 2.723-4.242 2.723-2.575 0-4.664-2.087-4.664-4.662 0-2.576 2.089-4.663 4.664-4.663 2.575 0 4.664 2.087 4.664 4.663 0 .485-.076.955-.213 1.395l18.193 6.873c1.079-2.951 3.816-5.103 7.081-5.334V35.607c-2.575 0-4.662-2.089-4.662-4.664 0-2.575 2.087-4.662 4.662-4.662z" fill-opacity=".960388"/></g><g fill="#2E3094" fill-rule="evenodd"><path d="M1448.451 54.576c-2.283 0-4.473.887-6.087 2.467-1.614 1.579-2.521 3.723-2.521 5.957s.907 4.377 2.521 5.956c1.614 1.58 3.804 2.468 6.087 2.468 2.282 0 4.472-.888 6.086-2.468 1.614-1.579 2.521-3.722 2.521-5.956 0-2.234-.907-4.378-2.521-5.957-1.614-1.58-3.804-2.467-6.086-2.467z"/><path d="M1448.194 29.162c2.373 0 4.297 1.923 4.297 4.296 0 2.191-1.64 3.999-3.759 4.263v17.76c3.322 0 6.14 2.155 7.136 5.142l17.4-5.554c-.236-.53-.366-1.118-.366-1.738 0-2.372 1.924-4.296 4.296-4.296 2.373 0 4.299 1.924 4.299 4.296 0 2.374-1.926 4.297-4.299 4.297-1.558 0-2.924-.83-3.677-2.074l-17.502 5.585c.152.595.233 1.218.233 1.861 0 1.289-.325 2.503-.898 3.562l16.048 8.67c.758-1.216 2.109-2.026 3.648-2.026 2.374 0 4.298 1.924 4.298 4.296 0 2.373-1.924 4.298-4.298 4.298-2.372 0-4.296-1.925-4.296-4.298 0-.642.14-1.251.392-1.797l-16.063-8.678c-1.334 2.099-3.68 3.492-6.351 3.492v17.725c2.372 0 4.296 1.925 4.296 4.298s-1.924 4.296-4.296 4.296c-2.373 0-4.297-1.923-4.297-4.296 0-2.192 1.64-3.999 3.759-4.263V70.501c-2.484-.176-4.635-1.558-5.871-3.563l-16.007 8.764c.253.549.393 1.158.393 1.8 0 2.373-1.924 4.298-4.297 4.298-2.372 0-4.296-1.925-4.296-4.298 0-2.372 1.924-4.296 4.296-4.296 1.539 0 2.889.808 3.647 2.024l15.999-8.76c-.54-1.038-.846-2.219-.846-3.47 0-.719.101-1.416.289-2.074l-16.791-6.344c-.678 1.482-2.174 2.509-3.909 2.509-2.374 0-4.298-1.923-4.298-4.297 0-2.373 1.924-4.296 4.298-4.296 2.373 0 4.297 1.923 4.297 4.296 0 .448-.069.881-.195 1.287l16.765 6.333c.995-2.72 3.517-4.703 6.526-4.915V37.756c-2.374 0-4.297-1.925-4.297-4.298s1.923-4.296 4.297-4.296z" fill-opacity=".976476"/></g><g fill="#2E3094" fill-rule="evenodd"><path d="M1574.451 54.576c-2.283 0-4.473.887-6.087 2.467-1.614 1.579-2.521 3.723-2.521 5.957s.907 4.377 2.521 5.956c1.614 1.58 3.804 2.468 6.087 2.468 2.282 0 4.472-.888 6.086-2.468 1.614-1.579 2.521-3.722 2.521-5.956 0-2.234-.907-4.378-2.521-5.957-1.614-1.58-3.804-2.467-6.086-2.467z"/><path d="M1574.25 31.544c2.207 0 3.996 1.788 3.996 3.994 0 2.037-1.525 3.718-3.495 3.963V56.01c3.088 0 5.707 2.003 6.633 4.781l16.175-5.163c-.219-.493-.34-1.04-.34-1.617 0-2.205 1.789-3.992 3.994-3.992 2.206 0 3.996 1.787 3.996 3.992 0 2.208-1.79 3.996-3.996 3.996-1.449 0-2.718-.772-3.419-1.929l-16.269 5.192c.141.553.216 1.132.216 1.73 0 1.198-.302 2.327-.834 3.311l14.917 8.06c.705-1.131 1.961-1.884 3.392-1.884 2.206 0 3.995 1.789 3.995 3.994 0 2.206-1.789 3.995-3.995 3.995-2.205 0-3.994-1.789-3.994-3.995 0-.597.131-1.163.365-1.671l-14.932-8.067c-1.24 1.952-3.421 3.247-5.904 3.247v16.477c2.205 0 3.993 1.789 3.993 3.995 0 2.206-1.788 3.994-3.993 3.994-2.206 0-3.995-1.788-3.995-3.994 0-2.038 1.525-3.718 3.494-3.963V69.973c-2.308-.164-4.308-1.449-5.457-3.312l-14.88 8.147c.236.51.365 1.076.365 1.673 0 2.206-1.788 3.995-3.994 3.995-2.205 0-3.994-1.789-3.994-3.995 0-2.205 1.789-3.994 3.994-3.994 1.431 0 2.686.752 3.391 1.882l14.872-8.143c-.502-.965-.787-2.063-.787-3.226 0-.668.094-1.316.269-1.928l-15.609-5.897c-.63 1.377-2.021 2.332-3.634 2.332-2.206 0-3.995-1.788-3.995-3.994 0-2.206 1.789-3.994 3.995-3.994 2.206 0 3.995 1.788 3.995 3.994 0 .416-.064.819-.181 1.196l15.584 5.887c.925-2.528 3.269-4.372 6.066-4.569V39.533c-2.206 0-3.994-1.789-3.994-3.995 0-2.206 1.788-3.994 3.994-3.994z" fill-opacity=".987634"/></g><g fill="#2E3094" fill-rule="evenodd"><path d="M1700.451 54.576c-2.283 0-4.473.887-6.087 2.467-1.614 1.579-2.521 3.723-2.521 5.957s.907 4.377 2.521 5.956c1.614 1.58 3.804 2.468 6.087 2.468 2.282 0 4.472-.888 6.086-2.468 1.614-1.579 2.521-3.722 2.521-5.956 0-2.234-.907-4.378-2.521-5.957-1.614-1.58-3.804-2.467-6.086-2.467z"/><path d="M1700.293 33.324c2.081 0 3.769 1.687 3.769 3.768 0 1.922-1.438 3.507-3.297 3.739v15.575c2.913 0 5.385 1.89 6.258 4.51l15.259-4.871c-.206-.465-.321-.981-.321-1.525 0-2.08 1.688-3.767 3.768-3.767 2.081 0 3.77 1.687 3.77 3.767 0 2.083-1.689 3.769-3.77 3.769-1.367 0-2.564-.728-3.225-1.819l-15.349 4.898c.134.522.205 1.068.205 1.632 0 1.13-.286 2.195-.787 3.124l14.073 7.603c.665-1.067 1.85-1.777 3.2-1.777 2.081 0 3.769 1.688 3.769 3.768 0 2.081-1.688 3.769-3.769 3.769-2.081 0-3.768-1.688-3.768-3.769 0-.563.123-1.097.344-1.576l-14.087-7.611c-1.17 1.842-3.227 3.063-5.57 3.063v15.545c2.081 0 3.767 1.687 3.767 3.769 0 2.081-1.686 3.768-3.767 3.768s-3.769-1.687-3.769-3.768c0-1.923 1.439-3.507 3.297-3.739V69.578c-2.178-.154-4.065-1.366-5.149-3.125l-14.037 7.687c.222.481.344 1.015.344 1.578 0 2.081-1.687 3.769-3.768 3.769-2.08 0-3.768-1.688-3.768-3.769 0-2.08 1.688-3.768 3.768-3.768 1.35 0 2.534.709 3.199 1.775l14.03-7.682c-.474-.91-.742-1.946-.742-3.043 0-.63.088-1.242.254-1.819l-14.726-5.563c-.595 1.299-1.907 2.2-3.428 2.2-2.081 0-3.769-1.687-3.769-3.768 0-2.081 1.688-3.768 3.769-3.768 2.081 0 3.769 1.687 3.769 3.768 0 .392-.061.772-.172 1.128l14.703 5.554c.872-2.385 3.084-4.124 5.723-4.31V40.861c-2.081 0-3.768-1.687-3.768-3.769 0-2.081 1.687-3.768 3.768-3.768z" fill-opacity=".994833"/></g><g fill="#2E3094" fill-rule="evenodd"><path d="M1826.451 54.576c-2.283 0-4.473.887-6.087 2.467-1.614 1.579-2.521 3.723-2.521 5.957s.907 4.377 2.521 5.956c1.614 1.58 3.804 2.468 6.087 2.468 2.282 0 4.472-.888 6.086-2.468 1.614-1.579 2.521-3.722 2.521-5.956 0-2.234-.907-4.378-2.521-5.957-1.614-1.58-3.804-2.467-6.086-2.467z"/><path d="M1826.319 34.425c2.004 0 3.629 1.624 3.629 3.628 0 1.85-1.385 3.377-3.174 3.6V56.65c2.805 0 5.185 1.82 6.026 4.343l14.693-4.69c-.199-.448-.309-.945-.309-1.468 0-2.003 1.625-3.628 3.628-3.628 2.004 0 3.63 1.625 3.63 3.628 0 2.005-1.626 3.629-3.63 3.629-1.316 0-2.469-.701-3.105-1.752l-14.78 4.717c.129.502.197 1.028.197 1.571 0 1.088-.275 2.114-.758 3.008l13.551 7.322c.641-1.028 1.782-1.712 3.082-1.712 2.004 0 3.629 1.625 3.629 3.629s-1.625 3.629-3.629 3.629-3.629-1.625-3.629-3.629c0-.543.119-1.057.332-1.518l-13.565-7.329c-1.127 1.773-3.108 2.95-5.363 2.95v14.968c2.003 0 3.627 1.625 3.627 3.629s-1.624 3.628-3.627 3.628c-2.004 0-3.629-1.624-3.629-3.628 0-1.851 1.385-3.377 3.174-3.6V69.335c-2.097-.149-3.914-1.317-4.957-3.01l-13.518 7.402c.214.463.332.977.332 1.52 0 2.004-1.624 3.629-3.628 3.629s-3.629-1.625-3.629-3.629 1.625-3.629 3.629-3.629c1.299 0 2.439.683 3.08 1.71l13.51-7.398c-.456-.876-.715-1.873-.715-2.93 0-.607.085-1.196.245-1.752l-14.18-5.357c-.573 1.252-1.836 2.119-3.301 2.119-2.004 0-3.629-1.624-3.629-3.628s1.625-3.629 3.629-3.629 3.629 1.625 3.629 3.629c0 .378-.059.743-.165 1.086l14.157 5.349c.84-2.297 2.97-3.972 5.511-4.152V41.682c-2.004 0-3.628-1.625-3.628-3.629s1.624-3.628 3.628-3.628z" fill-opacity=".99878"/></g><g fill="#2E3094" fill-rule="evenodd"><path d="M1952.451 54.576c-2.283 0-4.473.887-6.087 2.467-1.614 1.579-2.521 3.723-2.521 5.957s.907 4.377 2.521 5.956c1.614 1.58 3.804 2.468 6.087 2.468 2.282 0 4.472-.888 6.086-2.468 1.614-1.579 2.521-3.722 2.521-5.956 0-2.234-.907-4.378-2.521-5.957-1.614-1.58-3.804-2.467-6.086-2.467z"/><path d="M1952.328 34.797c1.978 0 3.582 1.603 3.582 3.581 0 1.826-1.367 3.333-3.133 3.553v14.802c2.768 0 5.117 1.796 5.947 4.286l14.502-4.629c-.196-.442-.305-.932-.305-1.449 0-1.977 1.604-3.58 3.581-3.58 1.978 0 3.583 1.603 3.583 3.58 0 1.979-1.605 3.582-3.583 3.582-1.299 0-2.437-.692-3.065-1.729l-14.587 4.655c.127.496.194 1.015.194 1.551 0 1.074-.271 2.086-.748 2.969l13.375 7.226c.632-1.014 1.758-1.689 3.041-1.689 1.978 0 3.582 1.604 3.582 3.581 0 1.978-1.604 3.582-3.582 3.582-1.977 0-3.581-1.604-3.581-3.582 0-.535.117-1.043.327-1.498l-13.388-7.233c-1.112 1.75-3.067 2.911-5.293 2.911V84.04c1.977 0 3.58 1.604 3.58 3.582 0 1.978-1.603 3.581-3.58 3.581-1.978 0-3.582-1.603-3.582-3.581 0-1.827 1.367-3.333 3.133-3.553V69.252c-2.07-.147-3.863-1.299-4.893-2.97l-13.341 7.305c.211.457.327.965.327 1.5 0 1.978-1.603 3.582-3.581 3.582-1.977 0-3.581-1.604-3.581-3.582 0-1.977 1.604-3.581 3.581-3.581 1.283 0 2.408.674 3.04 1.687l13.334-7.301c-.45-.865-.705-1.849-.705-2.892 0-.599.084-1.18.241-1.729l-13.995-5.287c-.565 1.235-1.812 2.091-3.258 2.091-1.978 0-3.582-1.603-3.582-3.581s1.604-3.581 3.582-3.581c1.978 0 3.582 1.603 3.582 3.581 0 .373-.058.734-.163 1.072l13.973 5.279c.829-2.267 2.931-3.92 5.439-4.097V41.96c-1.978 0-3.581-1.604-3.581-3.582 0-1.978 1.603-3.581 3.581-3.581z"/></g><g fill="#2E3094" fill-rule="evenodd"><path d="M2078.451 54.576c-2.283 0-4.473.887-6.087 2.467-1.614 1.579-2.521 3.723-2.521 5.957s.907 4.377 2.521 5.956c1.614 1.58 3.804 2.468 6.087 2.468 2.282 0 4.472-.888 6.086-2.468 1.614-1.579 2.521-3.722 2.521-5.956 0-2.234-.907-4.378-2.521-5.957-1.614-1.58-3.804-2.467-6.086-2.467z"/><path d="M2078.319 34.425c2.004 0 3.629 1.624 3.629 3.628 0 1.85-1.385 3.377-3.174 3.6V56.65c2.805 0 5.185 1.82 6.026 4.343l14.693-4.69c-.199-.448-.309-.945-.309-1.468 0-2.003 1.625-3.628 3.628-3.628 2.004 0 3.63 1.625 3.63 3.628 0 2.005-1.626 3.629-3.63 3.629-1.316 0-2.469-.701-3.105-1.752l-14.78 4.717c.129.502.197 1.028.197 1.571 0 1.088-.275 2.114-.758 3.008l13.551 7.322c.641-1.028 1.782-1.712 3.082-1.712 2.004 0 3.629 1.625 3.629 3.629s-1.625 3.629-3.629 3.629-3.629-1.625-3.629-3.629c0-.543.119-1.057.332-1.518l-13.565-7.329c-1.127 1.773-3.108 2.95-5.363 2.95v14.968c2.003 0 3.627 1.625 3.627 3.629s-1.624 3.628-3.627 3.628c-2.004 0-3.629-1.624-3.629-3.628 0-1.851 1.385-3.377 3.174-3.6V69.335c-2.097-.149-3.914-1.317-4.957-3.01l-13.518 7.402c.214.463.332.977.332 1.52 0 2.004-1.624 3.629-3.628 3.629s-3.629-1.625-3.629-3.629 1.625-3.629 3.629-3.629c1.299 0 2.439.683 3.08 1.71l13.51-7.398c-.456-.876-.715-1.873-.715-2.93 0-.607.085-1.196.245-1.752l-14.18-5.357c-.573 1.252-1.836 2.119-3.301 2.119-2.004 0-3.629-1.624-3.629-3.628s1.625-3.629 3.629-3.629 3.629 1.625 3.629 3.629c0 .378-.059.743-.165 1.086l14.157 5.349c.84-2.297 2.97-3.972 5.511-4.152V41.682c-2.004 0-3.628-1.625-3.628-3.629s1.624-3.628 3.628-3.628z" fill-opacity=".99468"/></g><g fill="#2E3094" fill-rule="evenodd"><path d="M2204.451 54.576c-2.283 0-4.473.887-6.087 2.467-1.614 1.579-2.521 3.723-2.521 5.957s.907 4.377 2.521 5.956c1.614 1.58 3.804 2.468 6.087 2.468 2.282 0 4.472-.888 6.086-2.468 1.614-1.579 2.521-3.722 2.521-5.956 0-2.234-.907-4.378-2.521-5.957-1.614-1.58-3.804-2.467-6.086-2.467z"/><path d="M2204.293 33.324c2.081 0 3.769 1.687 3.769 3.768 0 1.922-1.438 3.507-3.297 3.739v15.575c2.913 0 5.385 1.89 6.258 4.51l15.259-4.871c-.206-.465-.321-.981-.321-1.525 0-2.08 1.688-3.767 3.768-3.767 2.081 0 3.77 1.687 3.77 3.767 0 2.083-1.689 3.769-3.77 3.769-1.367 0-2.564-.728-3.225-1.819l-15.349 4.898c.134.522.205 1.068.205 1.632 0 1.13-.286 2.195-.787 3.124l14.073 7.603c.665-1.067 1.85-1.777 3.2-1.777 2.081 0 3.769 1.688 3.769 3.768 0 2.081-1.688 3.769-3.769 3.769-2.081 0-3.768-1.688-3.768-3.769 0-.563.123-1.097.344-1.576l-14.087-7.611c-1.17 1.842-3.227 3.063-5.57 3.063v15.545c2.081 0 3.767 1.687 3.767 3.769 0 2.081-1.686 3.768-3.767 3.768s-3.769-1.687-3.769-3.768c0-1.923 1.439-3.507 3.297-3.739V69.578c-2.178-.154-4.065-1.366-5.149-3.125l-14.037 7.687c.222.481.344 1.015.344 1.578 0 2.081-1.687 3.769-3.768 3.769-2.08 0-3.768-1.688-3.768-3.769 0-2.08 1.688-3.768 3.768-3.768 1.35 0 2.534.709 3.199 1.775l14.03-7.682c-.474-.91-.742-1.946-.742-3.043 0-.63.088-1.242.254-1.819l-14.726-5.563c-.595 1.299-1.907 2.2-3.428 2.2-2.081 0-3.769-1.687-3.769-3.768 0-2.081 1.688-3.768 3.769-3.768 2.081 0 3.769 1.687 3.769 3.768 0 .392-.061.772-.172 1.128l14.703 5.554c.872-2.385 3.084-4.124 5.723-4.31V40.861c-2.081 0-3.768-1.687-3.768-3.769 0-2.081 1.687-3.768 3.768-3.768z" fill-opacity=".975035"/></g><g fill="#2E3094" fill-rule="evenodd"><path d="M2330.451 54.576c-2.283 0-4.473.887-6.087 2.467-1.614 1.579-2.521 3.723-2.521 5.957s.907 4.377 2.521 5.956c1.614 1.58 3.804 2.468 6.087 2.468 2.282 0 4.472-.888 6.086-2.468 1.614-1.579 2.521-3.722 2.521-5.956 0-2.234-.907-4.378-2.521-5.957-1.614-1.58-3.804-2.467-6.086-2.467z"/><path d="M2330.25 31.544c2.207 0 3.996 1.788 3.996 3.994 0 2.037-1.525 3.718-3.495 3.963V56.01c3.088 0 5.707 2.003 6.633 4.781l16.175-5.163c-.219-.493-.34-1.04-.34-1.617 0-2.205 1.789-3.992 3.994-3.992 2.206 0 3.996 1.787 3.996 3.992 0 2.208-1.79 3.996-3.996 3.996-1.449 0-2.718-.772-3.419-1.929l-16.269 5.192c.141.553.216 1.132.216 1.73 0 1.198-.302 2.327-.834 3.311l14.917 8.06c.705-1.131 1.961-1.884 3.392-1.884 2.206 0 3.995 1.789 3.995 3.994 0 2.206-1.789 3.995-3.995 3.995-2.205 0-3.994-1.789-3.994-3.995 0-.597.131-1.163.365-1.671l-14.932-8.067c-1.24 1.952-3.421 3.247-5.904 3.247v16.477c2.205 0 3.993 1.789 3.993 3.995 0 2.206-1.788 3.994-3.993 3.994-2.206 0-3.995-1.788-3.995-3.994 0-2.038 1.525-3.718 3.494-3.963V69.973c-2.308-.164-4.308-1.449-5.457-3.312l-14.88 8.147c.236.51.365 1.076.365 1.673 0 2.206-1.788 3.995-3.994 3.995-2.205 0-3.994-1.789-3.994-3.995 0-2.205 1.789-3.994 3.994-3.994 1.431 0 2.686.752 3.391 1.882l14.872-8.143c-.502-.965-.787-2.063-.787-3.226 0-.668.094-1.316.269-1.928l-15.609-5.897c-.63 1.377-2.021 2.332-3.634 2.332-2.206 0-3.995-1.788-3.995-3.994 0-2.206 1.789-3.994 3.995-3.994 2.206 0 3.995 1.788 3.995 3.994 0 .416-.064.819-.181 1.196l15.584 5.887c.925-2.528 3.269-4.372 6.066-4.569V39.533c-2.206 0-3.994-1.789-3.994-3.995 0-2.206 1.788-3.994 3.994-3.994z" fill-opacity=".933027"/></g><g fill="#2E3094" fill-rule="evenodd"><path d="M2456.451 54.576c-2.283 0-4.473.887-6.087 2.467-1.614 1.579-2.521 3.723-2.521 5.957s.907 4.377 2.521 5.956c1.614 1.58 3.804 2.468 6.087 2.468 2.282 0 4.472-.888 6.086-2.468 1.614-1.579 2.521-3.722 2.521-5.956 0-2.234-.907-4.378-2.521-5.957-1.614-1.58-3.804-2.467-6.086-2.467z"/><path d="M2456.194 29.162c2.373 0 4.297 1.923 4.297 4.296 0 2.191-1.64 3.999-3.759 4.263v17.76c3.322 0 6.14 2.155 7.136 5.142l17.4-5.554c-.236-.53-.366-1.118-.366-1.738 0-2.372 1.924-4.296 4.296-4.296 2.373 0 4.299 1.924 4.299 4.296 0 2.374-1.926 4.297-4.299 4.297-1.558 0-2.924-.83-3.677-2.074l-17.502 5.585c.152.595.233 1.218.233 1.861 0 1.289-.325 2.503-.898 3.562l16.048 8.67c.758-1.216 2.109-2.026 3.648-2.026 2.374 0 4.298 1.924 4.298 4.296 0 2.373-1.924 4.298-4.298 4.298-2.372 0-4.296-1.925-4.296-4.298 0-.642.14-1.251.392-1.797l-16.063-8.678c-1.334 2.099-3.68 3.492-6.351 3.492v17.725c2.372 0 4.296 1.925 4.296 4.298s-1.924 4.296-4.296 4.296c-2.373 0-4.297-1.923-4.297-4.296 0-2.192 1.64-3.999 3.759-4.263V70.501c-2.484-.176-4.635-1.558-5.871-3.563l-16.007 8.764c.253.549.393 1.158.393 1.8 0 2.373-1.924 4.298-4.297 4.298-2.372 0-4.296-1.925-4.296-4.298 0-2.372 1.924-4.296 4.296-4.296 1.539 0 2.889.808 3.647 2.024l15.999-8.76c-.54-1.038-.846-2.219-.846-3.47 0-.719.101-1.416.289-2.074l-16.791-6.344c-.678 1.482-2.174 2.509-3.909 2.509-2.374 0-4.298-1.923-4.298-4.297 0-2.373 1.924-4.296 4.298-4.296 2.373 0 4.297 1.923 4.297 4.296 0 .448-.069.881-.195 1.287l16.765 6.333c.995-2.72 3.517-4.703 6.526-4.915V37.756c-2.374 0-4.297-1.925-4.297-4.298s1.923-4.296 4.297-4.296z" fill-opacity=".860973"/></g><g fill="#2E3094" fill-rule="evenodd"><path d="M2582.451 54.576c-2.283 0-4.473.887-6.087 2.467-1.614 1.579-2.521 3.723-2.521 5.957s.907 4.377 2.521 5.956c1.614 1.58 3.804 2.468 6.087 2.468 2.282 0 4.472-.888 6.086-2.468 1.614-1.579 2.521-3.722 2.521-5.956 0-2.234-.907-4.378-2.521-5.957-1.614-1.58-3.804-2.467-6.086-2.467z"/><path d="M2582.125 26.281c2.575 0 4.664 2.087 4.664 4.662 0 2.378-1.78 4.34-4.079 4.626v19.272c3.603 0 6.662 2.338 7.742 5.58l18.881-6.027c-.255-.575-.397-1.213-.397-1.886 0-2.574 2.089-4.661 4.663-4.661 2.575 0 4.665 2.087 4.665 4.661 0 2.576-2.09 4.663-4.665 4.663-1.692 0-3.173-.901-3.991-2.251l-18.992 6.061c.166.645.253 1.321.253 2.019 0 1.398-.353 2.716-.974 3.866l17.414 9.407c.823-1.32 2.289-2.199 3.959-2.199 2.575 0 4.664 2.089 4.664 4.663 0 2.575-2.089 4.663-4.664 4.663-2.574 0-4.662-2.088-4.662-4.663 0-.697.152-1.358.426-1.951l-17.431-9.417c-1.448 2.279-3.993 3.79-6.891 3.79v19.234c2.574 0 4.661 2.089 4.661 4.664 0 2.575-2.087 4.662-4.661 4.662-2.576 0-4.664-2.087-4.664-4.662 0-2.379 1.78-4.34 4.079-4.626V71.14c-2.695-.192-5.029-1.691-6.37-3.867l-17.37 9.511c.275.595.426 1.256.426 1.953 0 2.575-2.087 4.663-4.662 4.663-2.574 0-4.663-2.088-4.663-4.663 0-2.574 2.089-4.663 4.663-4.663 1.67 0 3.135.878 3.958 2.197l17.36-9.506c-.586-1.126-.918-2.407-.918-3.765 0-.78.109-1.536.314-2.251l-18.221-6.884c-.736 1.608-2.359 2.723-4.242 2.723-2.575 0-4.664-2.087-4.664-4.662 0-2.576 2.089-4.663 4.664-4.663 2.575 0 4.664 2.087 4.664 4.663 0 .485-.076.955-.213 1.395l18.193 6.873c1.079-2.951 3.816-5.103 7.081-5.334V35.607c-2.575 0-4.662-2.089-4.662-4.664 0-2.575 2.087-4.662 4.662-4.662z" fill-opacity=".771374"/></g><g fill="#2E3094" fill-rule="evenodd"><path d="M2708.451 54.576c-2.283 0-4.473.887-6.087 2.467-1.614 1.579-2.521 3.723-2.521 5.957s.907 4.377 2.521 5.956c1.614 1.58 3.804 2.468 6.087 2.468 2.282 0 4.472-.888 6.086-2.468 1.614-1.579 2.521-3.722 2.521-5.956 0-2.234-.907-4.378-2.521-5.957-1.614-1.58-3.804-2.467-6.086-2.467z"/><path d="M2708.048 23.028c2.803 0 5.076 2.272 5.076 5.075 0 2.588-1.937 4.724-4.44 5.036v20.979c3.923 0 7.252 2.545 8.429 6.074l20.553-6.56c-.278-.627-.432-1.321-.432-2.054 0-2.802 2.273-5.074 5.075-5.074 2.804 0 5.078 2.272 5.078 5.074 0 2.805-2.274 5.077-5.078 5.077-1.841 0-3.454-.981-4.344-2.451l-20.674 6.598c.18.703.275 1.438.275 2.198 0 1.522-.384 2.956-1.06 4.208l18.956 10.241c.896-1.437 2.492-2.393 4.31-2.393 2.804 0 5.077 2.273 5.077 5.075 0 2.803-2.273 5.077-5.077 5.077-2.802 0-5.075-2.274-5.075-5.077 0-.758.166-1.478.463-2.123l-18.974-10.252c-1.576 2.481-4.347 4.126-7.502 4.126V92.82c2.802 0 5.074 2.273 5.074 5.077 0 2.803-2.272 5.075-5.074 5.075-2.803 0-5.077-2.272-5.077-5.075 0-2.59 1.938-4.724 4.441-5.036v-21c-2.934-.208-5.475-1.841-6.935-4.209l-18.908 10.353c.299.648.463 1.368.463 2.126 0 2.803-2.272 5.077-5.075 5.077-2.802 0-5.076-2.274-5.076-5.077 0-2.802 2.274-5.075 5.076-5.075 1.818 0 3.413.955 4.308 2.39l18.899-10.347c-.638-1.226-1-2.621-1-4.099 0-.849.119-1.672.342-2.451l-19.835-7.493c-.801 1.751-2.568 2.964-4.618 2.964-2.803 0-5.076-2.272-5.076-5.076 0-2.803 2.273-5.075 5.076-5.075 2.804 0 5.077 2.272 5.077 5.075 0 .529-.082 1.041-.231 1.52l19.804 7.482c1.175-3.213 4.154-5.556 7.709-5.807V33.18c-2.804 0-5.076-2.273-5.076-5.077 0-2.803 2.272-5.075 5.076-5.075z" fill-opacity=".693203"/></g><g fill="#2E3094" fill-rule="evenodd"><path d="M2834.451 54.576c-2.283 0-4.473.887-6.087 2.467-1.614 1.579-2.521 3.723-2.521 5.957s.907 4.377 2.521 5.956c1.614 1.58 3.804 2.468 6.087 2.468 2.282 0 4.472-.888 6.086-2.468 1.614-1.579 2.521-3.722 2.521-5.956 0-2.234-.907-4.378-2.521-5.957-1.614-1.58-3.804-2.467-6.086-2.467z"/><path d="M2833.965 19.545c3.047 0 5.519 2.47 5.519 5.518 0 2.813-2.107 5.135-4.828 5.474v22.807c4.265 0 7.885 2.767 9.163 6.604l22.345-7.133c-.302-.681-.47-1.436-.47-2.232 0-3.046 2.471-5.516 5.518-5.516 3.047 0 5.52 2.47 5.52 5.516 0 3.049-2.473 5.519-5.52 5.519-2.002 0-3.755-1.066-4.723-2.664l-22.475 7.172c.195.764.299 1.564.299 2.39 0 1.655-.418 3.214-1.153 4.575l20.608 11.133c.974-1.562 2.709-2.602 4.686-2.602 3.047 0 5.519 2.471 5.519 5.518 0 3.047-2.472 5.519-5.519 5.519s-5.518-2.472-5.518-5.519c0-.825.18-1.608.504-2.309l-20.628-11.144c-1.714 2.696-4.726 4.485-8.156 4.485v22.762c3.047 0 5.516 2.472 5.516 5.519 0 3.048-2.469 5.518-5.516 5.518s-5.519-2.47-5.519-5.518c0-2.815 2.107-5.135 4.828-5.474v-22.83c-3.19-.226-5.952-2.001-7.539-4.576l-20.556 11.255c.325.704.504 1.487.504 2.312 0 3.047-2.47 5.519-5.518 5.519-3.046 0-5.517-2.472-5.517-5.519s2.471-5.518 5.517-5.518c1.977 0 3.71 1.038 4.684 2.599l20.545-11.249c-.693-1.333-1.086-2.849-1.086-4.456 0-.923.129-1.818.371-2.664l-21.563-8.146c-.871 1.903-2.792 3.222-5.02 3.222-3.048 0-5.519-2.47-5.519-5.518 0-3.048 2.471-5.518 5.519-5.518s5.519 2.47 5.519 5.518c0 .575-.089 1.131-.251 1.652l21.529 8.134c1.278-3.493 4.516-6.04 8.381-6.313V30.582c-3.048 0-5.518-2.472-5.518-5.519 0-3.048 2.47-5.518 5.518-5.518z" fill-opacity=".635016"/></g><g fill="#2E3094" fill-rule="evenodd"><path d="M2960.451 54.576c-2.283 0-4.473.887-6.087 2.467-1.614 1.579-2.521 3.723-2.521 5.957s.907 4.377 2.521 5.956c1.614 1.58 3.804 2.468 6.087 2.468 2.282 0 4.472-.888 6.086-2.468 1.614-1.579 2.521-3.722 2.521-5.956 0-2.234-.907-4.378-2.521-5.957-1.614-1.58-3.804-2.467-6.086-2.467z"/><path d="M2959.88 15.984c3.297 0 5.971 2.673 5.971 5.97 0 3.044-2.279 5.556-5.223 5.923v24.676c4.615 0 8.531 2.994 9.914 7.145l24.176-7.717c-.327-.737-.509-1.554-.509-2.416 0-3.295 2.674-5.968 5.97-5.968 3.297 0 5.973 2.673 5.973 5.968 0 3.299-2.676 5.972-5.973 5.972-2.166 0-4.063-1.154-5.11-2.883l-24.317 7.76c.212.827.324 1.692.324 2.586 0 1.79-.452 3.477-1.247 4.949l22.296 12.046c1.054-1.69 2.931-2.815 5.07-2.815 3.297 0 5.971 2.674 5.971 5.97 0 3.297-2.674 5.971-5.971 5.971-3.296 0-5.97-2.674-5.97-5.971 0-.892.195-1.739.545-2.498l-22.318-12.057c-1.854 2.917-5.113 4.852-8.824 4.852v24.628c3.296 0 5.968 2.673 5.968 5.971 0 3.297-2.672 5.97-5.968 5.97-3.297 0-5.971-2.673-5.971-5.97 0-3.046 2.279-5.556 5.223-5.923V73.422c-3.451-.245-6.44-2.165-8.157-4.951l-22.24 12.178c.352.762.545 1.609.545 2.501 0 3.297-2.672 5.971-5.97 5.971-3.295 0-5.969-2.674-5.969-5.971 0-3.296 2.674-5.97 5.969-5.97 2.139 0 4.015 1.123 5.068 2.812l22.228-12.171c-.75-1.442-1.175-3.082-1.175-4.821 0-.999.14-1.967.402-2.882l-23.33-8.814c-.942 2.059-3.021 3.486-5.431 3.486-3.298 0-5.972-2.672-5.972-5.97 0-3.297 2.674-5.97 5.972-5.97 3.297 0 5.971 2.673 5.971 5.97 0 .622-.097 1.224-.272 1.787l23.294 8.801c1.382-3.78 4.886-6.535 9.067-6.83V27.925c-3.298 0-5.97-2.673-5.97-5.971 0-3.297 2.672-5.97 5.97-5.97z" fill-opacity=".592784"/></g><g fill="#2E3094" fill-rule="evenodd"><path d="M3086.451 54.576c-2.283 0-4.473.887-6.087 2.467-1.614 1.579-2.521 3.723-2.521 5.957s.907 4.377 2.521 5.956c1.614 1.58 3.804 2.468 6.087 2.468 2.282 0 4.472-.888 6.086-2.468 1.614-1.579 2.521-3.722 2.521-5.956 0-2.234-.907-4.378-2.521-5.957-1.614-1.58-3.804-2.467-6.086-2.467z"/><path d="M3085.797 12.502c3.541 0 6.413 2.87 6.413 6.411 0 3.27-2.447 5.968-5.609 6.362v26.504c4.956 0 9.162 3.216 10.648 7.674l25.966-8.288c-.351-.792-.546-1.669-.546-2.595 0-3.54 2.872-6.41 6.412-6.41 3.542 0 6.416 2.87 6.416 6.41 0 3.544-2.874 6.414-6.416 6.414-2.326 0-4.363-1.239-5.488-3.096l-26.118 8.335c.227.888.347 1.817.347 2.777 0 1.923-.485 3.735-1.339 5.316l23.948 12.939c1.132-1.816 3.148-3.025 5.445-3.025 3.542 0 6.414 2.872 6.414 6.412 0 3.542-2.872 6.414-6.414 6.414-3.54 0-6.412-2.872-6.412-6.414 0-.958.21-1.867.586-2.682l-23.972-12.951c-1.991 3.133-5.492 5.212-9.477 5.212v26.452c3.54 0 6.41 2.872 6.41 6.414 0 3.541-2.87 6.411-6.41 6.411-3.542 0-6.414-2.87-6.414-6.411 0-3.272 2.448-5.968 5.61-6.362V74.194c-3.707-.263-6.917-2.325-8.761-5.317l-23.888 13.079c.378.819.586 1.728.586 2.686 0 3.542-2.871 6.414-6.412 6.414-3.54 0-6.412-2.872-6.412-6.414 0-3.54 2.872-6.412 6.412-6.412 2.297 0 4.311 1.207 5.443 3.021l23.875-13.073c-.806-1.549-1.262-3.31-1.262-5.178 0-1.073.15-2.113.431-3.096l-25.058-9.466c-1.012 2.211-3.245 3.744-5.834 3.744-3.542 0-6.414-2.871-6.414-6.412 0-3.542 2.872-6.412 6.414-6.412s6.414 2.87 6.414 6.412c0 .668-.104 1.314-.292 1.919l25.019 9.452c1.484-4.059 5.248-7.019 9.739-7.335V25.327c-3.542 0-6.412-2.872-6.412-6.414 0-3.541 2.87-6.411 6.412-6.411z" fill-opacity=".562016"/></g><g fill="#2E3094" fill-rule="evenodd"><path d="M3212.451 54.576c-2.283 0-4.473.887-6.087 2.467-1.614 1.579-2.521 3.723-2.521 5.957s.907 4.377 2.521 5.956c1.614 1.58 3.804 2.468 6.087 2.468 2.282 0 4.472-.888 6.086-2.468 1.614-1.579 2.521-3.722 2.521-5.956 0-2.234-.907-4.378-2.521-5.957-1.614-1.58-3.804-2.467-6.086-2.467z"/><path d="M3211.719 9.249c3.77 0 6.827 3.055 6.827 6.825 0 3.48-2.605 6.352-5.971 6.771v28.211c5.275 0 9.752 3.423 11.334 8.168l27.639-8.822c-.373-.842-.581-1.776-.581-2.761 0-3.768 3.057-6.823 6.825-6.823 3.77 0 6.829 3.055 6.829 6.823 0 3.771-3.059 6.826-6.829 6.826-2.476 0-4.645-1.318-5.842-3.295l-27.801 8.872c.242.945.37 1.934.37 2.956 0 2.047-.516 3.976-1.425 5.659l25.491 13.771c1.204-1.932 3.35-3.219 5.795-3.219 3.77 0 6.827 3.057 6.827 6.825 0 3.77-3.057 6.827-6.827 6.827-3.768 0-6.825-3.057-6.825-6.827 0-1.019.223-1.988.624-2.855l-25.516-13.785c-2.12 3.335-5.846 5.548-10.088 5.548V103.1c3.768 0 6.823 3.057 6.823 6.826 0 3.77-3.055 6.825-6.823 6.825-3.77 0-6.827-3.055-6.827-6.825 0-3.482 2.605-6.352 5.971-6.771V74.916c-3.945-.281-7.362-2.476-9.325-5.661l-25.426 13.922c.402.871.623 1.84.623 2.859 0 3.77-3.055 6.827-6.825 6.827-3.768 0-6.825-3.057-6.825-6.827 0-3.768 3.057-6.825 6.825-6.825 2.445 0 4.589 1.285 5.794 3.216l25.413-13.915c-.858-1.649-1.344-3.524-1.344-5.512 0-1.142.16-2.249.459-3.295l-26.672-10.077c-1.077 2.354-3.454 3.986-6.21 3.986-3.77 0-6.827-3.056-6.827-6.825 0-3.77 3.057-6.825 6.827-6.825s6.827 3.055 6.827 6.825c0 .711-.11 1.399-.311 2.043l26.631 10.061c1.58-4.321 5.586-7.471 10.366-7.809V22.9c-3.77 0-6.825-3.057-6.825-6.826 0-3.77 3.055-6.825 6.825-6.825z" fill-opacity=".539612"/></g><g fill="#2E3094" fill-rule="evenodd"><path d="M3338.451 54.576c-2.283 0-4.473.887-6.087 2.467-1.614 1.579-2.521 3.723-2.521 5.957s.907 4.377 2.521 5.956c1.614 1.58 3.804 2.468 6.087 2.468 2.282 0 4.472-.888 6.086-2.468 1.614-1.579 2.521-3.722 2.521-5.956 0-2.234-.907-4.378-2.521-5.957-1.614-1.58-3.804-2.467-6.086-2.467z"/><path d="M3337.651 6.368c3.971 0 7.192 3.219 7.192 7.191 0 3.666-2.745 6.692-6.291 7.134v29.723c5.558 0 10.275 3.606 11.942 8.606l29.12-9.295c-.393-.888-.612-1.871-.612-2.91 0-3.969 3.22-7.188 7.19-7.188 3.972 0 7.195 3.219 7.195 7.188 0 3.974-3.223 7.193-7.195 7.193-2.608 0-4.893-1.389-6.154-3.472l-29.291 9.348c.255.996.389 2.038.389 3.114 0 2.157-.544 4.189-1.502 5.962l26.858 14.51c1.269-2.036 3.53-3.392 6.106-3.392 3.972 0 7.193 3.221 7.193 7.191 0 3.972-3.221 7.193-7.193 7.193-3.97 0-7.191-3.221-7.191-7.193 0-1.074.235-2.095.657-3.008l-26.883-14.524c-2.233 3.514-6.159 5.845-10.629 5.845v29.665c3.97 0 7.189 3.22 7.189 7.192s-3.219 7.191-7.189 7.191c-3.972 0-7.192-3.219-7.192-7.191 0-3.668 2.744-6.692 6.291-7.134V75.554c-4.157-.295-7.757-2.608-9.826-5.964l-26.788 14.669c.423.917.656 1.938.656 3.012 0 3.972-3.219 7.193-7.191 7.193-3.969 0-7.19-3.221-7.19-7.193 0-3.97 3.221-7.191 7.19-7.191 2.577 0 4.836 1.354 6.105 3.388l26.775-14.661c-.904-1.737-1.416-3.713-1.416-5.807 0-1.203.169-2.369.484-3.472l-28.102-10.616c-1.135 2.48-3.639 4.199-6.542 4.199-3.972 0-7.193-3.219-7.193-7.191s3.221-7.191 7.193-7.191c3.972 0 7.192 3.219 7.192 7.191 0 .749-.116 1.474-.327 2.152l28.058 10.601c1.665-4.552 5.886-7.872 10.922-8.227V20.751c-3.972 0-7.191-3.22-7.191-7.192s3.219-7.191 7.191-7.191z" fill-opacity=".523524"/></g><g fill="#2E3094" fill-rule="evenodd"><path d="M3464.451 54.576c-2.283 0-4.473.887-6.087 2.467-1.614 1.579-2.521 3.723-2.521 5.957s.907 4.377 2.521 5.956c1.614 1.58 3.804 2.468 6.087 2.468 2.282 0 4.472-.888 6.086-2.468 1.614-1.579 2.521-3.722 2.521-5.956 0-2.234-.907-4.378-2.521-5.957-1.614-1.58-3.804-2.467-6.086-2.467z"/><path d="M3463.594 3.985c4.139 0 7.495 3.355 7.495 7.494 0 3.821-2.86 6.974-6.556 7.434v30.973c5.792 0 10.708 3.758 12.444 8.969l30.346-9.686c-.41-.925-.638-1.951-.638-3.032 0-4.137 3.356-7.492 7.493-7.492 4.139 0 7.497 3.355 7.497 7.492 0 4.141-3.358 7.495-7.497 7.495-2.718 0-5.1-1.448-6.414-3.618l-30.523 9.741c.266 1.037.406 2.123.406 3.245 0 2.247-.567 4.365-1.565 6.213l27.987 15.12c1.322-2.122 3.679-3.534 6.363-3.534 4.139 0 7.496 3.356 7.496 7.493 0 4.139-3.357 7.495-7.496 7.495-4.137 0-7.493-3.356-7.493-7.495 0-1.12.245-2.183.684-3.135l-28.014-15.135c-2.327 3.662-6.418 6.092-11.076 6.092v30.912c4.137 0 7.492 3.356 7.492 7.495s-3.355 7.494-7.492 7.494c-4.139 0-7.495-3.355-7.495-7.494 0-3.823 2.861-6.974 6.556-7.434V76.082c-4.332-.307-8.083-2.718-10.239-6.214l-27.916 15.285c.442.956.685 2.019.685 3.139 0 4.139-3.355 7.495-7.494 7.495-4.136 0-7.493-3.356-7.493-7.495 0-4.137 3.357-7.493 7.493-7.493 2.685 0 5.039 1.41 6.362 3.53l27.901-15.278c-.942-1.81-1.475-3.869-1.475-6.051 0-1.253.175-2.469.504-3.618l-29.285-11.063c-1.182 2.584-3.791 4.375-6.817 4.375-4.139 0-7.495-3.354-7.495-7.493s3.356-7.493 7.495-7.493 7.495 3.354 7.495 7.493c0 .781-.121 1.536-.341 2.243l29.239 11.047c1.734-4.744 6.133-8.203 11.381-8.573V18.974c-4.139 0-7.493-3.356-7.493-7.495s3.354-7.494 7.493-7.494z" fill-opacity=".512366"/></g><g fill="#2E3094" fill-rule="evenodd"><path d="M3590.451 54.576c-2.283 0-4.473.887-6.087 2.467-1.614 1.579-2.521 3.723-2.521 5.957s.907 4.377 2.521 5.956c1.614 1.58 3.804 2.468 6.087 2.468 2.282 0 4.472-.888 6.086-2.468 1.614-1.579 2.521-3.722 2.521-5.956 0-2.234-.907-4.378-2.521-5.957-1.614-1.58-3.804-2.467-6.086-2.467z"/><path d="M3589.551 2.205c4.264 0 7.722 3.456 7.722 7.719 0 3.937-2.947 7.185-6.754 7.659v31.908c5.967 0 11.031 3.871 12.82 9.239l31.261-9.979c-.423-.952-.658-2.009-.658-3.123 0-4.262 3.458-7.717 7.719-7.717 4.264 0 7.724 3.455 7.724 7.717 0 4.266-3.46 7.721-7.724 7.721-2.8 0-5.253-1.491-6.607-3.727l-31.444 10.035c.274 1.069.419 2.188.419 3.343 0 2.315-.585 4.497-1.613 6.4l28.832 15.577c1.362-2.186 3.789-3.641 6.555-3.641 4.264 0 7.721 3.457 7.721 7.719 0 4.264-3.457 7.721-7.721 7.721-4.262 0-7.719-3.457-7.719-7.721 0-1.153.252-2.248.704-3.229l-28.859-15.592c-2.397 3.773-6.611 6.275-11.41 6.275v31.845c4.262 0 7.717 3.458 7.717 7.722 0 4.263-3.455 7.719-7.717 7.719-4.264 0-7.721-3.456-7.721-7.719 0-3.939 2.947-7.185 6.753-7.659v-31.94c-4.462-.317-8.327-2.8-10.547-6.402l-28.758 15.747c.455.985.705 2.08.705 3.233 0 4.264-3.456 7.721-7.72 7.721-4.261 0-7.719-3.457-7.719-7.721 0-4.262 3.458-7.719 7.719-7.719 2.766 0 5.191 1.453 6.554 3.636l28.743-15.738c-.97-1.865-1.52-3.986-1.52-6.234 0-1.291.181-2.544.519-3.727l-30.168-11.397c-1.217 2.662-3.905 4.508-7.023 4.508-4.263 0-7.721-3.456-7.721-7.72 0-4.264 3.458-7.719 7.721-7.719 4.264 0 7.722 3.455 7.722 7.719 0 .804-.125 1.583-.351 2.311l30.12 11.38c1.787-4.887 6.318-8.45 11.724-8.832V17.646c-4.263 0-7.719-3.458-7.719-7.722 0-4.263 3.456-7.719 7.719-7.719z" fill-opacity=".505167"/></g><g fill="#2E3094" fill-rule="evenodd"><path d="M3716.451 54.576c-2.283 0-4.473.887-6.087 2.467-1.614 1.579-2.521 3.723-2.521 5.957s.907 4.377 2.521 5.956c1.614 1.58 3.804 2.468 6.087 2.468 2.282 0 4.472-.888 6.086-2.468 1.614-1.579 2.521-3.722 2.521-5.956 0-2.234-.907-4.378-2.521-5.957-1.614-1.58-3.804-2.467-6.086-2.467z"/><path d="M3715.525 1.105c4.341 0 7.861 3.518 7.861 7.859 0 4.007-3 7.314-6.875 7.797v32.485c6.074 0 11.23 3.942 13.051 9.406l31.827-10.159c-.43-.97-.67-2.045-.67-3.18 0-4.338 3.52-7.856 7.859-7.856 4.341 0 7.864 3.518 7.864 7.856 0 4.344-3.523 7.862-7.864 7.862-2.851 0-5.348-1.519-6.726-3.795l-32.013 10.216c.278 1.089.425 2.228.425 3.404 0 2.357-.594 4.578-1.641 6.516l29.353 15.858c1.387-2.225 3.858-3.706 6.674-3.706 4.341 0 7.861 3.52 7.861 7.859 0 4.341-3.52 7.861-7.861 7.861-4.339 0-7.859-3.52-7.859-7.861 0-1.175.257-2.289.718-3.288l-29.382-15.874c-2.441 3.841-6.731 6.389-11.616 6.389v32.421c4.338 0 7.856 3.52 7.856 7.861 0 4.341-3.518 7.859-7.856 7.859-4.341 0-7.862-3.518-7.862-7.859 0-4.009 3-7.314 6.876-7.797V76.721c-4.543-.323-8.478-2.851-10.738-6.518l-29.279 16.032c.463 1.003.718 2.117.718 3.292 0 4.341-3.518 7.861-7.859 7.861-4.339 0-7.859-3.52-7.859-7.861 0-4.339 3.52-7.859 7.859-7.859 2.816 0 5.285 1.479 6.672 3.702l29.263-16.023c-.988-1.898-1.547-4.058-1.547-6.347 0-1.315.184-2.59.529-3.795l-30.714-11.603c-1.24 2.711-3.977 4.589-7.15 4.589-4.341 0-7.862-3.518-7.862-7.859s3.521-7.859 7.862-7.859 7.861 3.518 7.861 7.859c0 .819-.128 1.611-.358 2.353l30.666 11.586c1.819-4.976 6.432-8.603 11.936-8.992V16.825c-4.341 0-7.859-3.52-7.859-7.861 0-4.341 3.518-7.859 7.859-7.859z" fill-opacity=".50122"/></g><g fill="#2E3094" fill-rule="evenodd"><path d="M3842.451 54.576c-2.283 0-4.473.887-6.087 2.467-1.614 1.579-2.521 3.723-2.521 5.957s.907 4.377 2.521 5.956c1.614 1.58 3.804 2.468 6.087 2.468 2.282 0 4.472-.888 6.086-2.468 1.614-1.579 2.521-3.722 2.521-5.956 0-2.234-.907-4.378-2.521-5.957-1.614-1.58-3.804-2.467-6.086-2.467z"/><path d="M3841.516.733c4.367 0 7.909 3.539 7.909 7.906 0 4.031-3.018 7.359-6.917 7.844v32.681c6.111 0 11.297 3.965 13.13 9.462l32.018-10.22c-.433-.976-.674-2.057-.674-3.199 0-4.365 3.542-7.904 7.906-7.904 4.368 0 7.911 3.539 7.911 7.904 0 4.369-3.543 7.909-7.911 7.909-2.868 0-5.38-1.528-6.767-3.818l-32.205 10.278c.28 1.095.428 2.241.428 3.424 0 2.371-.598 4.606-1.651 6.555l29.529 15.954c1.396-2.239 3.882-3.729 6.714-3.729 4.368 0 7.909 3.541 7.909 7.906 0 4.367-3.541 7.908-7.909 7.908-4.364 0-7.906-3.541-7.906-7.908 0-1.181.258-2.303.722-3.307l-29.558-15.97c-2.455 3.864-6.772 6.427-11.686 6.427v32.617c4.365 0 7.904 3.541 7.904 7.908 0 4.367-3.539 7.906-7.904 7.906-4.367 0-7.909-3.539-7.909-7.906 0-4.034 3.018-7.359 6.917-7.844V76.803c-4.57-.324-8.529-2.868-10.803-6.557l-29.454 16.128c.466 1.009.722 2.131.722 3.312 0 4.367-3.539 7.908-7.907 7.908-4.364 0-7.906-3.541-7.906-7.908 0-4.365 3.542-7.906 7.906-7.906 2.833 0 5.317 1.488 6.712 3.724l29.439-16.119c-.993-1.91-1.556-4.082-1.556-6.385 0-1.322.185-2.605.532-3.817l-30.899-11.673c-1.247 2.727-4 4.616-7.193 4.616-4.367 0-7.908-3.539-7.908-7.906 0-4.367 3.541-7.906 7.908-7.906 4.367 0 7.909 3.539 7.909 7.906 0 .824-.128 1.621-.36 2.367l30.85 11.655c1.83-5.005 6.471-8.655 12.008-9.045v-32.65c-4.367 0-7.906-3.541-7.906-7.908 0-4.367 3.539-7.906 7.906-7.906z" fill-opacity=".5"/></g></svg>